<?xml version="1.0" encoding="UTF-8"?>
<!DOCTYPE svg PUBLIC "-//W3C//DTD SVG 1.1//EN" "http://www.w3.org/Graphics/SVG/1.1/DTD/svg11.dtd">
<svg version="1.1" xmlns="http://www.w3.org/2000/svg" xmlns:xlink="http://www.w3.org/1999/xlink" x="0" y="0" width="184.252" height="192.756" viewBox="0, 0, 184.252, 192.756">
  <g id="Layer_1">
    <path d="M174.136,192.756 L27.093,192.756 C21.515,192.756 16.993,188.279 16.993,182.756 L16.993,10 C16.993,4.477 21.515,-0 27.093,-0 L174.136,-0 C179.715,-0 184.237,4.477 184.237,10 L184.237,182.756 C184.237,188.279 179.715,192.756 174.136,192.756 z" fill="#B80016"/>
    <path d="M23.685,5.089 C25.157,5.089 26.351,6.283 26.351,7.756 C26.351,9.229 25.157,10.423 23.685,10.423 C22.212,10.423 21.018,9.229 21.018,7.756 C21.018,6.283 22.212,5.089 23.685,5.089 z" fill="#FFFFFF"/>
    <path d="M24.685,183.956 C26.157,183.956 27.351,185.15 27.351,186.623 C27.351,188.095 26.157,189.289 24.685,189.289 C23.212,189.289 22.018,188.095 22.018,186.623 C22.018,185.15 23.212,183.956 24.685,183.956 z" fill="#FFFFFF"/>
    <path d="M176.103,5.089 C177.576,5.089 178.77,6.283 178.77,7.756 C178.77,9.229 177.576,10.423 176.103,10.423 C174.631,10.423 173.437,9.229 173.437,7.756 C173.437,6.283 174.631,5.089 176.103,5.089 z" fill="#FFFFFF"/>
    <path d="M139.17,153.423 C140.643,153.423 141.837,154.616 141.837,156.089 C141.837,157.562 140.643,158.756 139.17,158.756 C137.697,158.756 136.503,157.562 136.503,156.089 C136.503,154.616 137.697,153.423 139.17,153.423 z" fill="#FFFFFF"/>
  </g>
  <g id="Layer_4">
    <path d="M26.048,192.756 C21.055,192.663 17.954,190.044 17.186,187.24 L16.993,187.24 L16.993,179.273 L73.862,179.273 C73.971,179.045 73.902,179.164 74.082,178.923 C74.065,178.845 74.073,178.908 74.196,178.77 C76.256,176.01 78.696,173.543 80.71,170.747 C80.701,170.734 80.7,170.739 80.719,170.734 L80.727,170.723 L80.752,170.725 L80.719,170.734 L80.71,170.747 L80.92,170.756 L153.021,170.756 L160.674,188.368 L160.674,192.756 L162.237,192.756 L162.237,173.943 L162.237,173.943 L162.237,90.073 C162.237,85.072 167.162,81.017 173.237,81.017 C179.312,81.017 184.237,85.072 184.237,90.073 L184.237,183.701 C184.086,188.694 179.874,191.988 175.299,192.756 L26.048,192.756 z" fill="#B28104"/>
    <path d="M184.237,94.51 L162.237,94.51 L162.237,79.173 L184.237,79.173 L184.237,94.51 z" fill="#B28104"/>
    <path d="M162.237,79.423 L173.237,65.256 L184.237,51.089 L184.237,51.381 L184.237,51.943 C184.218,53.221 184.279,50.666 184.237,51.943 C184.195,53.221 184.285,51.354 184.237,52.631 C184.125,55.337 184.269,53.253 184.237,55.96 C184.204,58.667 184.107,60.388 184.237,63.095 C184.255,63.473 184.196,77.38 184.237,77.756 C184.278,78.132 184.2,79.046 184.237,79.423 L174.015,79.423 L162.237,79.423 z" fill="#B28104"/>
  </g>
  <g id="TOP_RIGHT_HOLE_THROUGH">
    <path d="M23.685,5.089 C25.157,5.089 26.351,6.283 26.351,7.756 C26.351,9.229 25.157,10.423 23.685,10.423 C22.212,10.423 21.018,9.229 21.018,7.756 C21.018,6.283 22.212,5.089 23.685,5.089 z" fill="#FFFFFF"/>
    <path d="M24.685,183.956 C26.157,183.956 27.351,185.15 27.351,186.623 C27.351,188.095 26.157,189.289 24.685,189.289 C23.212,189.289 22.018,188.095 22.018,186.623 C22.018,185.15 23.212,183.956 24.685,183.956 z" fill="#FFFFFF"/>
    <path d="M176.103,5.089 C177.576,5.089 178.77,6.283 178.77,7.756 C178.77,9.229 177.576,10.423 176.103,10.423 C174.631,10.423 173.437,9.229 173.437,7.756 C173.437,6.283 174.631,5.089 176.103,5.089 z" fill="#FFFFFF"/>
    <path d="M139.17,153.423 C140.643,153.423 141.837,154.616 141.837,156.089 C141.837,157.562 140.643,158.756 139.17,158.756 C137.697,158.756 136.503,157.562 136.503,156.089 C136.503,154.616 137.697,153.423 139.17,153.423 z" fill="#FFFFFF"/>
  </g>
  <g id="HEADER_HOLES">
    <g id="connector5pin">
      <path d="M27.716,177.574 C26.582,177.574 25.664,176.655 25.664,175.522 C25.664,174.389 26.582,173.47 27.716,173.47 C28.849,173.47 29.768,174.389 29.768,175.522 C29.768,176.655 28.849,177.574 27.716,177.574 z" fill="#FFFFFF"/>
      <path d="M27.716,177.574 C26.582,177.574 25.664,176.655 25.664,175.522 C25.664,174.389 26.582,173.47 27.716,173.47 C28.849,173.47 29.768,174.389 29.768,175.522 C29.768,176.655 28.849,177.574 27.716,177.574 z" fill-opacity="0" stroke="#9A916C" stroke-width="1.224"/>
    </g>
    <g id="connector5pin">
      <path d="M27.716,170.455 C26.582,170.455 25.664,169.536 25.664,168.403 C25.664,167.269 26.582,166.351 27.716,166.351 C28.849,166.351 29.768,167.269 29.768,168.403 C29.768,169.536 28.849,170.455 27.716,170.455 z" fill="#FFFFFF"/>
      <path d="M27.716,170.455 C26.582,170.455 25.664,169.536 25.664,168.403 C25.664,167.269 26.582,166.351 27.716,166.351 C28.849,166.351 29.768,167.269 29.768,168.403 C29.768,169.536 28.849,170.455 27.716,170.455 z" fill-opacity="0" stroke="#9A916C" stroke-width="1.224"/>
    </g>
    <g id="connector5pin">
      <path d="M27.716,163.338 C26.582,163.338 25.664,162.419 25.664,161.286 C25.664,160.153 26.582,159.234 27.716,159.234 C28.849,159.234 29.768,160.153 29.768,161.286 C29.768,162.419 28.849,163.338 27.716,163.338 z" fill="#FFFFFF"/>
      <path d="M27.716,163.338 C26.582,163.338 25.664,162.419 25.664,161.286 C25.664,160.153 26.582,159.234 27.716,159.234 C28.849,159.234 29.768,160.153 29.768,161.286 C29.768,162.419 28.849,163.338 27.716,163.338 z" fill-opacity="0" stroke="#9A916C" stroke-width="1.224"/>
    </g>
    <g id="connector5pin">
      <path d="M27.716,156.215 C26.582,156.215 25.664,155.296 25.664,154.163 C25.664,153.029 26.582,152.111 27.716,152.111 C28.849,152.111 29.768,153.029 29.768,154.163 C29.768,155.296 28.849,156.215 27.716,156.215 z" fill="#FFFFFF"/>
      <path d="M27.716,156.215 C26.582,156.215 25.664,155.296 25.664,154.163 C25.664,153.029 26.582,152.111 27.716,152.111 C28.849,152.111 29.768,153.029 29.768,154.163 C29.768,155.296 28.849,156.215 27.716,156.215 z" fill-opacity="0" stroke="#9A916C" stroke-width="1.224"/>
    </g>
    <g id="connector5pin">
      <path d="M27.716,149.098 C26.582,149.098 25.664,148.18 25.664,147.046 C25.664,145.913 26.582,144.994 27.716,144.994 C28.849,144.994 29.768,145.913 29.768,147.046 C29.768,148.18 28.849,149.098 27.716,149.098 z" fill="#FFFFFF"/>
      <path d="M27.716,149.098 C26.582,149.098 25.664,148.18 25.664,147.046 C25.664,145.913 26.582,144.994 27.716,144.994 C28.849,144.994 29.768,145.913 29.768,147.046 C29.768,148.18 28.849,149.098 27.716,149.098 z" fill-opacity="0" stroke="#9A916C" stroke-width="1.224"/>
    </g>
    <g id="connector5pin">
      <path d="M27.716,141.979 C26.582,141.979 25.664,141.06 25.664,139.927 C25.664,138.793 26.582,137.875 27.716,137.875 C28.849,137.875 29.768,138.793 29.768,139.927 C29.768,141.06 28.849,141.979 27.716,141.979 z" fill="#FFFFFF"/>
      <path d="M27.716,141.979 C26.582,141.979 25.664,141.06 25.664,139.927 C25.664,138.793 26.582,137.875 27.716,137.875 C28.849,137.875 29.768,138.793 29.768,139.927 C29.768,141.06 28.849,141.979 27.716,141.979 z" fill-opacity="0" stroke="#9A916C" stroke-width="1.224"/>
    </g>
    <g id="connector5pin">
      <path d="M27.716,134.859 C26.582,134.859 25.664,133.94 25.664,132.807 C25.664,131.674 26.582,130.755 27.716,130.755 C28.849,130.755 29.768,131.674 29.768,132.807 C29.768,133.94 28.849,134.859 27.716,134.859 z" fill="#FFFFFF"/>
      <path d="M27.716,134.859 C26.582,134.859 25.664,133.94 25.664,132.807 C25.664,131.674 26.582,130.755 27.716,130.755 C28.849,130.755 29.768,131.674 29.768,132.807 C29.768,133.94 28.849,134.859 27.716,134.859 z" fill-opacity="0" stroke="#9A916C" stroke-width="1.224"/>
    </g>
    <g id="connector5pin">
      <path d="M27.716,127.744 C26.582,127.744 25.664,126.825 25.664,125.692 C25.664,124.558 26.582,123.64 27.716,123.64 C28.849,123.64 29.768,124.558 29.768,125.692 C29.768,126.825 28.849,127.744 27.716,127.744 z" fill="#FFFFFF"/>
      <path d="M27.716,127.744 C26.582,127.744 25.664,126.825 25.664,125.692 C25.664,124.558 26.582,123.64 27.716,123.64 C28.849,123.64 29.768,124.558 29.768,125.692 C29.768,126.825 28.849,127.744 27.716,127.744 z" fill-opacity="0" stroke="#9A916C" stroke-width="1.224"/>
    </g>
    <g id="connector5pin">
      <path d="M27.716,120.625 C26.582,120.625 25.664,119.706 25.664,118.573 C25.664,117.44 26.582,116.521 27.716,116.521 C28.849,116.521 29.768,117.44 29.768,118.573 C29.768,119.706 28.849,120.625 27.716,120.625 z" fill="#FFFFFF"/>
      <path d="M27.716,120.625 C26.582,120.625 25.664,119.706 25.664,118.573 C25.664,117.44 26.582,116.521 27.716,116.521 C28.849,116.521 29.768,117.44 29.768,118.573 C29.768,119.706 28.849,120.625 27.716,120.625 z" fill-opacity="0" stroke="#9A916C" stroke-width="1.224"/>
    </g>
    <g id="connector5pin">
      <path d="M27.716,113.508 C26.582,113.508 25.664,112.589 25.664,111.456 C25.664,110.322 26.582,109.404 27.716,109.404 C28.849,109.404 29.768,110.322 29.768,111.456 C29.768,112.589 28.849,113.508 27.716,113.508 z" fill="#FFFFFF"/>
      <path d="M27.716,113.508 C26.582,113.508 25.664,112.589 25.664,111.456 C25.664,110.322 26.582,109.404 27.716,109.404 C28.849,109.404 29.768,110.322 29.768,111.456 C29.768,112.589 28.849,113.508 27.716,113.508 z" fill-opacity="0" stroke="#9A916C" stroke-width="1.224"/>
    </g>
    <g id="connector5pin">
      <path d="M27.716,92.747 C26.582,92.747 25.664,91.829 25.664,90.695 C25.664,89.562 26.582,88.643 27.716,88.643 C28.849,88.643 29.768,89.562 29.768,90.695 C29.768,91.829 28.849,92.747 27.716,92.747 z" fill="#FFFFFF"/>
      <path d="M27.716,92.747 C26.582,92.747 25.664,91.829 25.664,90.695 C25.664,89.562 26.582,88.643 27.716,88.643 C28.849,88.643 29.768,89.562 29.768,90.695 C29.768,91.829 28.849,92.747 27.716,92.747 z" fill-opacity="0" stroke="#9A916C" stroke-width="1.224"/>
    </g>
    <g id="connector5pin">
      <path d="M27.716,85.628 C26.582,85.628 25.664,84.709 25.664,83.576 C25.664,82.443 26.582,81.524 27.716,81.524 C28.849,81.524 29.768,82.443 29.768,83.576 C29.768,84.709 28.849,85.628 27.716,85.628 z" fill="#FFFFFF"/>
      <path d="M27.716,85.628 C26.582,85.628 25.664,84.709 25.664,83.576 C25.664,82.443 26.582,81.524 27.716,81.524 C28.849,81.524 29.768,82.443 29.768,83.576 C29.768,84.709 28.849,85.628 27.716,85.628 z" fill-opacity="0" stroke="#9A916C" stroke-width="1.224"/>
    </g>
    <g id="connector5pin">
      <path d="M27.716,78.511 C26.582,78.511 25.664,77.593 25.664,76.459 C25.664,75.326 26.582,74.407 27.716,74.407 C28.849,74.407 29.768,75.326 29.768,76.459 C29.768,77.593 28.849,78.511 27.716,78.511 z" fill="#FFFFFF"/>
      <path d="M27.716,78.511 C26.582,78.511 25.664,77.593 25.664,76.459 C25.664,75.326 26.582,74.407 27.716,74.407 C28.849,74.407 29.768,75.326 29.768,76.459 C29.768,77.593 28.849,78.511 27.716,78.511 z" fill-opacity="0" stroke="#9A916C" stroke-width="1.224"/>
    </g>
    <g id="connector5pin">
      <path d="M27.716,71.388 C26.582,71.388 25.664,70.469 25.664,69.336 C25.664,68.203 26.582,67.284 27.716,67.284 C28.849,67.284 29.768,68.203 29.768,69.336 C29.768,70.469 28.849,71.388 27.716,71.388 z" fill="#FFFFFF"/>
      <path d="M27.716,71.388 C26.582,71.388 25.664,70.469 25.664,69.336 C25.664,68.203 26.582,67.284 27.716,67.284 C28.849,67.284 29.768,68.203 29.768,69.336 C29.768,70.469 28.849,71.388 27.716,71.388 z" fill-opacity="0" stroke="#9A916C" stroke-width="1.224"/>
    </g>
    <g id="connector5pin">
      <path d="M27.716,64.272 C26.582,64.272 25.664,63.353 25.664,62.22 C25.664,61.087 26.582,60.168 27.716,60.168 C28.849,60.168 29.768,61.087 29.768,62.22 C29.768,63.353 28.849,64.272 27.716,64.272 z" fill="#FFFFFF"/>
      <path d="M27.716,64.272 C26.582,64.272 25.664,63.353 25.664,62.22 C25.664,61.087 26.582,60.168 27.716,60.168 C28.849,60.168 29.768,61.087 29.768,62.22 C29.768,63.353 28.849,64.272 27.716,64.272 z" fill-opacity="0" stroke="#9A916C" stroke-width="1.224"/>
    </g>
    <g id="connector5pin">
      <path d="M27.716,57.152 C26.582,57.152 25.664,56.233 25.664,55.1 C25.664,53.967 26.582,53.048 27.716,53.048 C28.849,53.048 29.768,53.967 29.768,55.1 C29.768,56.233 28.849,57.152 27.716,57.152 z" fill="#FFFFFF"/>
      <path d="M27.716,57.152 C26.582,57.152 25.664,56.233 25.664,55.1 C25.664,53.967 26.582,53.048 27.716,53.048 C28.849,53.048 29.768,53.967 29.768,55.1 C29.768,56.233 28.849,57.152 27.716,57.152 z" fill-opacity="0" stroke="#9A916C" stroke-width="1.224"/>
    </g>
    <g id="connector5pin">
      <path d="M27.716,50.032 C26.582,50.032 25.664,49.114 25.664,47.98 C25.664,46.847 26.582,45.928 27.716,45.928 C28.849,45.928 29.768,46.847 29.768,47.98 C29.768,49.114 28.849,50.032 27.716,50.032 z" fill="#FFFFFF"/>
      <path d="M27.716,50.032 C26.582,50.032 25.664,49.114 25.664,47.98 C25.664,46.847 26.582,45.928 27.716,45.928 C28.849,45.928 29.768,46.847 29.768,47.98 C29.768,49.114 28.849,50.032 27.716,50.032 z" fill-opacity="0" stroke="#9A916C" stroke-width="1.224"/>
    </g>
    <g id="connector5pin">
      <path d="M27.716,42.917 C26.582,42.917 25.664,41.998 25.664,40.865 C25.664,39.732 26.582,38.813 27.716,38.813 C28.849,38.813 29.768,39.732 29.768,40.865 C29.768,41.998 28.849,42.917 27.716,42.917 z" fill="#FFFFFF"/>
      <path d="M27.716,42.917 C26.582,42.917 25.664,41.998 25.664,40.865 C25.664,39.732 26.582,38.813 27.716,38.813 C28.849,38.813 29.768,39.732 29.768,40.865 C29.768,41.998 28.849,42.917 27.716,42.917 z" fill-opacity="0" stroke="#9A916C" stroke-width="1.224"/>
    </g>
    <g id="connector5pin">
      <path d="M27.716,35.798 C26.582,35.798 25.664,34.88 25.664,33.746 C25.664,32.613 26.582,31.694 27.716,31.694 C28.849,31.694 29.768,32.613 29.768,33.746 C29.768,34.88 28.849,35.798 27.716,35.798 z" fill="#FFFFFF"/>
      <path d="M27.716,35.798 C26.582,35.798 25.664,34.88 25.664,33.746 C25.664,32.613 26.582,31.694 27.716,31.694 C28.849,31.694 29.768,32.613 29.768,33.746 C29.768,34.88 28.849,35.798 27.716,35.798 z" fill-opacity="0" stroke="#9A916C" stroke-width="1.224"/>
    </g>
    <g id="connector5pin">
      <path d="M27.716,28.681 C26.582,28.681 25.664,27.762 25.664,26.629 C25.664,25.496 26.582,24.577 27.716,24.577 C28.849,24.577 29.768,25.496 29.768,26.629 C29.768,27.762 28.849,28.681 27.716,28.681 z" fill="#FFFFFF"/>
      <path d="M27.716,28.681 C26.582,28.681 25.664,27.762 25.664,26.629 C25.664,25.496 26.582,24.577 27.716,24.577 C28.849,24.577 29.768,25.496 29.768,26.629 C29.768,27.762 28.849,28.681 27.716,28.681 z" fill-opacity="0" stroke="#9A916C" stroke-width="1.224"/>
    </g>
  </g>
  <g id="Layer_2">
    <path d="M-0.015,178.583 L-0.015,107.395 L7.727,107.395 L7.727,178.583 z" fill="#404040" id="_x30_.1.17.0.0_1_"/>
    <path d="M2.361,176.395 L2.361,173.647 L5.352,173.647 L5.352,176.395 z" fill="#000000" id="_x30_.1.17.0.1_1_"/>
    <path d="M1.259,177.409 L2.361,176.399 L2.361,173.646 L1.259,172.632 z" fill="#2A2A29" id="_x30_.1.17.0.2_1_"/>
    <path d="M1.259,172.632 L2.364,173.646 L5.355,173.646 L6.456,172.632 z" fill="#474747" id="_x30_.1.17.0.3_1_"/>
    <path d="M6.456,172.632 L5.355,173.646 L5.355,176.399 L6.456,177.409 z" fill="#595959" id="_x30_.1.17.0.4_1_"/>
    <path d="M6.456,177.411 L5.353,176.399 L2.361,176.399 L1.259,177.411 z" fill="#373737" id="_x30_.1.17.0.5_1_"/>
    <path d="M2.361,169.275 L2.361,166.525 L5.352,166.525 L5.352,169.275 z" fill="#000000" id="_x30_.1.17.0.6_1_"/>
    <path d="M1.259,170.291 L2.361,169.28 L2.361,166.527 L1.259,165.514 z" fill="#2A2A29" id="_x30_.1.17.0.7_1_"/>
    <path d="M1.259,165.514 L2.364,166.527 L5.355,166.527 L6.456,165.514 z" fill="#474747" id="_x30_.1.17.0.8_1_"/>
    <path d="M6.456,165.514 L5.355,166.529 L5.355,169.28 L6.456,170.291 z" fill="#595959" id="_x30_.1.17.0.9_1_"/>
    <path d="M6.456,170.293 L5.353,169.28 L2.361,169.28 L1.259,170.293 z" fill="#373737" id="_x30_.1.17.0.10_1_"/>
    <path d="M2.361,162.156 L2.361,159.411 L5.352,159.411 L5.352,162.156 z" fill="#000000" id="_x30_.1.17.0.11_1_"/>
    <path d="M1.259,163.175 L2.361,162.161 L2.361,159.408 L1.259,158.395 z" fill="#2A2A29" id="_x30_.1.17.0.12_1_"/>
    <path d="M1.259,158.395 L2.364,159.408 L5.355,159.408 L6.456,158.395 z" fill="#474747" id="_x30_.1.17.0.13_1_"/>
    <path d="M6.456,158.397 L5.355,159.408 L5.355,162.161 L6.456,163.175 z" fill="#595959" id="_x30_.1.17.0.14_1_"/>
    <path d="M6.456,163.175 L5.353,162.161 L2.361,162.161 L1.259,163.175 z" fill="#373737" id="_x30_.1.17.0.15_1_"/>
    <path d="M2.361,155.037 L2.361,152.288 L5.352,152.288 L5.352,155.037 z" fill="#000000" id="_x30_.1.17.0.16_1_"/>
    <path d="M1.259,156.054 L2.361,155.039 L2.361,152.288 L1.259,151.276 z" fill="#2A2A29" id="_x30_.1.17.0.17_1_"/>
    <path d="M1.259,151.276 L2.364,152.288 L5.355,152.288 L6.456,151.276 z" fill="#474747" id="_x30_.1.17.0.18_1_"/>
    <path d="M6.456,151.276 L5.355,152.29 L5.355,155.039 L6.456,156.054 z" fill="#595959" id="_x30_.1.17.0.19_1_"/>
    <path d="M6.456,156.056 L5.353,155.039 L2.361,155.039 L1.259,156.056 z" fill="#373737" id="_x30_.1.17.0.20_1_"/>
    <path d="M2.361,147.92 L2.361,145.175 L5.352,145.175 L5.352,147.92 z" fill="#000000" id="_x30_.1.17.0.21_1_"/>
    <path d="M1.259,148.935 L2.361,147.922 L2.361,145.171 L1.259,144.158 z" fill="#2A2A29" id="_x30_.1.17.0.22_1_"/>
    <path d="M1.259,144.158 L2.364,145.171 L5.355,145.171 L6.456,144.158 z" fill="#474747" id="_x30_.1.17.0.23_1_"/>
    <path d="M6.456,144.16 L5.355,145.173 L5.355,147.922 L6.456,148.935 z" fill="#595959" id="_x30_.1.17.0.24_1_"/>
    <path d="M6.456,148.937 L5.353,147.922 L2.361,147.922 L1.259,148.937 z" fill="#373737" id="_x30_.1.17.0.25_1_"/>
    <path d="M2.361,140.8 L2.361,138.054 L5.352,138.054 L5.352,140.8 z" fill="#000000" id="_x30_.1.17.0.26_1_"/>
    <path d="M1.259,141.815 L2.361,140.805 L2.361,138.052 L1.259,137.038 z" fill="#2A2A29" id="_x30_.1.17.0.27_1_"/>
    <path d="M1.259,137.038 L2.364,138.052 L5.355,138.052 L6.456,137.038 z" fill="#474747" id="_x30_.1.17.0.28_1_"/>
    <path d="M6.456,137.038 L5.355,138.056 L5.355,140.805 L6.456,141.815 z" fill="#595959" id="_x30_.1.17.0.29_1_"/>
    <path d="M6.456,141.817 L5.353,140.805 L2.361,140.805 L1.259,141.817 z" fill="#373737" id="_x30_.1.17.0.30_1_"/>
    <path d="M2.361,133.684 L2.361,130.937 L5.352,130.937 L5.352,133.684 z" fill="#000000" id="_x30_.1.17.0.31_1_"/>
    <path d="M1.259,134.696 L2.361,133.686 L2.361,130.936 L1.259,129.918 z" fill="#2A2A29" id="_x30_.1.17.0.32_1_"/>
    <path d="M1.259,129.918 L2.364,130.936 L5.355,130.936 L6.456,129.918 z" fill="#474747" id="_x30_.1.17.0.33_1_"/>
    <path d="M6.456,129.92 L5.355,130.938 L5.355,133.686 L6.456,134.696 z" fill="#595959" id="_x30_.1.17.0.34_1_"/>
    <path d="M6.456,134.698 L5.353,133.686 L2.361,133.686 L1.259,134.698 z" fill="#373737" id="_x30_.1.17.0.35_1_"/>
    <path d="M2.361,126.565 L2.361,123.818 L5.352,123.818 L5.352,126.565 z" fill="#000000" id="_x30_.1.17.0.36_1_"/>
    <path d="M1.259,127.581 L2.361,126.569 L2.361,123.814 L1.259,122.803 z" fill="#2A2A29" id="_x30_.1.17.0.37_1_"/>
    <path d="M1.259,122.803 L2.364,123.814 L5.355,123.814 L6.456,122.803 z" fill="#474747" id="_x30_.1.17.0.38_1_"/>
    <path d="M6.456,122.803 L5.355,123.814 L5.355,126.569 L6.456,127.581 z" fill="#595959" id="_x30_.1.17.0.39_1_"/>
    <path d="M6.456,127.583 L5.353,126.569 L2.361,126.569 L1.259,127.583 z" fill="#373737" id="_x30_.1.17.0.40_1_"/>
    <path d="M2.361,119.446 L2.361,116.698 L5.352,116.698 L5.352,119.446 z" fill="#000000" id="_x30_.1.17.0.41_1_"/>
    <path d="M1.259,120.46 L2.361,119.446 L2.361,116.694 L1.259,115.683 z" fill="#2A2A29" id="_x30_.1.17.0.42_1_"/>
    <path d="M1.259,115.683 L2.364,116.694 L5.355,116.694 L6.456,115.683 z" fill="#474747" id="_x30_.1.17.0.43_1_"/>
    <path d="M6.456,115.687 L5.355,116.696 L5.355,119.446 L6.456,120.46 z" fill="#595959" id="_x30_.1.17.0.44_1_"/>
    <path d="M6.456,120.462 L5.353,119.446 L2.361,119.446 L1.259,120.462 z" fill="#373737" id="_x30_.1.17.0.45_1_"/>
    <path d="M2.361,112.326 L2.361,109.581 L5.352,109.581 L5.352,112.326 z" fill="#000000" id="_x30_.1.17.0.46_1_"/>
    <path d="M1.259,113.343 L2.361,112.328 L2.361,109.579 L1.259,108.566 z" fill="#2A2A29" id="_x30_.1.17.0.47_1_"/>
    <path d="M1.259,108.566 L2.364,109.579 L5.355,109.579 L6.456,108.566 z" fill="#474747" id="_x30_.1.17.0.48_1_"/>
    <path d="M6.456,108.568 L5.355,109.579 L5.355,112.328 L6.456,113.343 z" fill="#595959" id="_x30_.1.17.0.49_1_"/>
    <path d="M6.456,113.345 L5.353,112.328 L2.361,112.328 L1.259,113.345 z" fill="#373737" id="_x30_.1.17.0.50_1_"/>
    <path d="M-0.015,93.756 L-0.015,22.568 L7.727,22.568 L7.727,93.756 z" fill="#404040" id="_x30_.1.17.0.0_1_"/>
    <path d="M2.361,91.57 L2.361,88.822 L5.352,88.822 L5.352,91.57 z" fill="#000000" id="_x30_.1.17.0.1_1_"/>
    <path d="M1.259,92.582 L2.361,91.572 L2.361,88.819 L1.259,87.805 z" fill="#2A2A29" id="_x30_.1.17.0.2_1_"/>
    <path d="M1.259,87.805 L2.364,88.819 L5.355,88.819 L6.456,87.805 z" fill="#474747" id="_x30_.1.17.0.3_1_"/>
    <path d="M6.456,87.805 L5.355,88.819 L5.355,91.572 L6.456,92.582 z" fill="#595959" id="_x30_.1.17.0.4_1_"/>
    <path d="M6.456,92.584 L5.353,91.572 L2.361,91.572 L1.259,92.584 z" fill="#373737" id="_x30_.1.17.0.5_1_"/>
    <path d="M2.361,84.45 L2.361,81.701 L5.352,81.701 L5.352,84.45 z" fill="#000000" id="_x30_.1.17.0.6_1_"/>
    <path d="M1.259,85.465 L2.361,84.453 L2.361,81.701 L1.259,80.687 z" fill="#2A2A29" id="_x30_.1.17.0.7_1_"/>
    <path d="M1.259,80.687 L2.364,81.701 L5.355,81.701 L6.456,80.687 z" fill="#474747" id="_x30_.1.17.0.8_1_"/>
    <path d="M6.456,80.687 L5.355,81.702 L5.355,84.453 L6.456,85.465 z" fill="#595959" id="_x30_.1.17.0.9_1_"/>
    <path d="M6.456,85.467 L5.353,84.453 L2.361,84.453 L1.259,85.467 z" fill="#373737" id="_x30_.1.17.0.10_1_"/>
    <path d="M2.361,77.331 L2.361,74.587 L5.352,74.587 L5.352,77.331 z" fill="#000000" id="_x30_.1.17.0.11_1_"/>
    <path d="M1.259,78.348 L2.361,77.334 L2.361,74.581 L1.259,73.568 z" fill="#2A2A29" id="_x30_.1.17.0.12_1_"/>
    <path d="M1.259,73.568 L2.364,74.581 L5.355,74.581 L6.456,73.568 z" fill="#474747" id="_x30_.1.17.0.13_1_"/>
    <path d="M6.456,73.57 L5.355,74.581 L5.355,77.334 L6.456,78.348 z" fill="#595959" id="_x30_.1.17.0.14_1_"/>
    <path d="M6.456,78.348 L5.353,77.334 L2.361,77.334 L1.259,78.348 z" fill="#373737" id="_x30_.1.17.0.15_1_"/>
    <path d="M2.361,70.213 L2.361,67.463 L5.352,67.463 L5.352,70.213 z" fill="#000000" id="_x30_.1.17.0.16_1_"/>
    <path d="M1.259,71.227 L2.361,70.213 L2.361,67.461 L1.259,66.45 z" fill="#2A2A29" id="_x30_.1.17.0.17_1_"/>
    <path d="M1.259,66.45 L2.364,67.461 L5.355,67.461 L6.456,66.45 z" fill="#474747" id="_x30_.1.17.0.18_1_"/>
    <path d="M6.456,66.45 L5.355,67.463 L5.355,70.213 L6.456,71.227 z" fill="#595959" id="_x30_.1.17.0.19_1_"/>
    <path d="M6.456,71.229 L5.353,70.213 L2.361,70.213 L1.259,71.229 z" fill="#373737" id="_x30_.1.17.0.20_1_"/>
    <path d="M2.361,63.093 L2.361,60.348 L5.352,60.348 L5.352,63.093 z" fill="#000000" id="_x30_.1.17.0.21_1_"/>
    <path d="M1.259,64.108 L2.361,63.095 L2.361,60.344 L1.259,59.331 z" fill="#2A2A29" id="_x30_.1.17.0.22_1_"/>
    <path d="M1.259,59.331 L2.364,60.344 L5.355,60.344 L6.456,59.331 z" fill="#474747" id="_x30_.1.17.0.23_1_"/>
    <path d="M6.456,59.333 L5.355,60.346 L5.355,63.095 L6.456,64.108 z" fill="#595959" id="_x30_.1.17.0.24_1_"/>
    <path d="M6.456,64.11 L5.353,63.095 L2.361,63.095 L1.259,64.11 z" fill="#373737" id="_x30_.1.17.0.25_1_"/>
    <path d="M2.361,55.973 L2.361,53.228 L5.352,53.228 L5.352,55.973 z" fill="#000000" id="_x30_.1.17.0.26_1_"/>
    <path d="M1.259,56.989 L2.361,55.978 L2.361,53.226 L1.259,52.211 z" fill="#2A2A29" id="_x30_.1.17.0.27_1_"/>
    <path d="M1.259,52.211 L2.364,53.226 L5.355,53.226 L6.456,52.211 z" fill="#474747" id="_x30_.1.17.0.28_1_"/>
    <path d="M6.456,52.211 L5.355,53.229 L5.355,55.978 L6.456,56.989 z" fill="#595959" id="_x30_.1.17.0.29_1_"/>
    <path d="M6.456,56.991 L5.353,55.978 L2.361,55.978 L1.259,56.991 z" fill="#373737" id="_x30_.1.17.0.30_1_"/>
    <path d="M2.361,48.857 L2.361,46.11 L5.352,46.11 L5.352,48.857 z" fill="#000000" id="_x30_.1.17.0.31_1_"/>
    <path d="M1.259,49.869 L2.361,48.859 L2.361,46.109 L1.259,45.091 z" fill="#2A2A29" id="_x30_.1.17.0.32_1_"/>
    <path d="M1.259,45.091 L2.364,46.109 L5.355,46.109 L6.456,45.091 z" fill="#474747" id="_x30_.1.17.0.33_1_"/>
    <path d="M6.456,45.093 L5.355,46.111 L5.355,48.859 L6.456,49.869 z" fill="#595959" id="_x30_.1.17.0.34_1_"/>
    <path d="M6.456,49.871 L5.353,48.859 L2.361,48.859 L1.259,49.871 z" fill="#373737" id="_x30_.1.17.0.35_1_"/>
    <path d="M2.361,41.739 L2.361,38.991 L5.352,38.991 L5.352,41.739 z" fill="#000000" id="_x30_.1.17.0.36_1_"/>
    <path d="M1.259,42.754 L2.361,41.743 L2.361,38.987 L1.259,37.977 z" fill="#2A2A29" id="_x30_.1.17.0.37_1_"/>
    <path d="M1.259,37.977 L2.364,38.987 L5.355,38.987 L6.456,37.977 z" fill="#474747" id="_x30_.1.17.0.38_1_"/>
    <path d="M6.456,37.977 L5.355,38.987 L5.355,41.743 L6.456,42.754 z" fill="#595959" id="_x30_.1.17.0.39_1_"/>
    <path d="M6.456,42.756 L5.353,41.743 L2.361,41.743 L1.259,42.756 z" fill="#373737" id="_x30_.1.17.0.40_1_"/>
    <path d="M2.361,34.619 L2.361,31.871 L5.352,31.871 L5.352,34.619 z" fill="#000000" id="_x30_.1.17.0.41_1_"/>
    <path d="M1.259,35.633 L2.361,34.619 L2.361,31.867 L1.259,30.856 z" fill="#2A2A29" id="_x30_.1.17.0.42_1_"/>
    <path d="M1.259,30.856 L2.364,31.867 L5.355,31.867 L6.456,30.856 z" fill="#474747" id="_x30_.1.17.0.43_1_"/>
    <path d="M6.456,30.86 L5.355,31.869 L5.355,34.619 L6.456,35.633 z" fill="#595959" id="_x30_.1.17.0.44_1_"/>
    <path d="M6.456,35.635 L5.353,34.619 L2.361,34.619 L1.259,35.635 z" fill="#373737" id="_x30_.1.17.0.45_1_"/>
    <path d="M2.361,27.499 L2.361,24.754 L5.352,24.754 L5.352,27.499 z" fill="#000000" id="_x30_.1.17.0.46_1_"/>
    <path d="M1.259,28.517 L2.361,27.501 L2.361,24.753 L1.259,23.739 z" fill="#2A2A29" id="_x30_.1.17.0.47_1_"/>
    <path d="M1.259,23.739 L2.364,24.753 L5.355,24.753 L6.456,23.739 z" fill="#474747" id="_x30_.1.17.0.48_1_"/>
    <path d="M6.456,23.741 L5.355,24.753 L5.355,27.501 L6.456,28.517 z" fill="#595959" id="_x30_.1.17.0.49_1_"/>
    <path d="M6.456,28.519 L5.353,27.501 L2.361,27.501 L1.259,28.519 z" fill="#373737" id="_x30_.1.17.0.50_1_"/>
    <path d="M24.36,178.583 L7.727,178.583 L7.727,107.395 L24.36,107.395 z" fill="#333333"/>
    <path d="M24.36,93.756 L7.727,93.756 L7.727,22.568 L24.36,22.568 z" fill="#333333"/>
    <path d="M24.364,176.396 L24.364,173.648 L27.355,173.648 L27.355,176.396 z" fill="#6A6A6A" id="_x30_.1.17.0.1_1_"/>
    <path d="M24.364,169.276 L24.364,166.526 L27.355,166.526 L27.355,169.276 z" fill="#6A6A6A" id="_x30_.1.17.0.6_1_"/>
    <path d="M24.364,162.157 L24.364,159.412 L27.355,159.412 L27.355,162.157 z" fill="#6A6A6A" id="_x30_.1.17.0.11_1_"/>
    <path d="M24.364,155.038 L24.364,152.289 L27.355,152.289 L27.355,155.038 z" fill="#6A6A6A" id="_x30_.1.17.0.16_1_"/>
    <path d="M24.364,147.921 L24.364,145.176 L27.355,145.176 L27.355,147.921 z" fill="#6A6A6A" id="_x30_.1.17.0.21_1_"/>
    <path d="M24.364,140.801 L24.364,138.055 L27.355,138.055 L27.355,140.801 z" fill="#6A6A6A" id="_x30_.1.17.0.26_1_"/>
    <path d="M24.364,133.685 L24.364,130.938 L27.355,130.938 L27.355,133.685 z" fill="#6A6A6A" id="_x30_.1.17.0.31_1_"/>
    <path d="M24.364,126.566 L24.364,123.819 L27.355,123.819 L27.355,126.566 z" fill="#6A6A6A" id="_x30_.1.17.0.36_1_"/>
    <path d="M24.364,119.447 L24.364,116.699 L27.355,116.699 L27.355,119.447 z" fill="#6A6A6A" id="_x30_.1.17.0.41_1_"/>
    <path d="M24.364,112.327 L24.364,109.582 L27.355,109.582 L27.355,112.327 z" fill="#6A6A6A" id="_x30_.1.17.0.46_1_"/>
    <path d="M24.36,91.554 L24.36,88.807 L27.351,88.807 L27.351,91.554 z" fill="#6A6A6A" id="_x30_.1.17.0.1_1_"/>
    <path d="M24.36,84.435 L24.36,81.685 L27.351,81.685 L27.351,84.435 z" fill="#6A6A6A" id="_x30_.1.17.0.6_1_"/>
    <path d="M24.36,77.316 L24.36,74.571 L27.351,74.571 L27.351,77.316 z" fill="#6A6A6A" id="_x30_.1.17.0.11_1_"/>
    <path d="M24.36,70.197 L24.36,67.448 L27.351,67.448 L27.351,70.197 z" fill="#6A6A6A" id="_x30_.1.17.0.16_1_"/>
    <path d="M24.36,63.079 L24.36,60.335 L27.351,60.335 L27.351,63.079 z" fill="#6A6A6A" id="_x30_.1.17.0.21_1_"/>
    <path d="M24.36,55.96 L24.36,53.214 L27.351,53.214 L27.351,55.96 z" fill="#6A6A6A" id="_x30_.1.17.0.26_1_"/>
    <path d="M24.36,48.844 L24.36,46.096 L27.351,46.096 L27.351,48.844 z" fill="#6A6A6A" id="_x30_.1.17.0.31_1_"/>
    <path d="M24.36,41.725 L24.36,38.978 L27.351,38.978 L27.351,41.725 z" fill="#6A6A6A" id="_x30_.1.17.0.36_1_"/>
    <path d="M24.36,34.605 L24.36,31.858 L27.351,31.858 L27.351,34.605 z" fill="#6A6A6A" id="_x30_.1.17.0.41_1_"/>
    <path d="M24.36,27.486 L24.36,24.741 L27.351,24.741 L27.351,27.486 z" fill="#6A6A6A" id="_x30_.1.17.0.46_1_"/>
  </g>
  <g id="PORTA,_POWER,_PORTB">
    <path d="M33.022,97.417 L33.022,94.986 L34.186,94.986 Q34.387,94.986 34.533,95.132 Q34.678,95.279 34.678,95.482 L34.678,96.097 Q34.678,96.3 34.534,96.445 Q34.389,96.589 34.186,96.589 L33.354,96.589 L33.354,97.417 Q33.354,97.486 33.306,97.533 Q33.258,97.581 33.19,97.581 Q33.12,97.581 33.071,97.533 Q33.022,97.486 33.022,97.417 z M33.354,96.261 L34.186,96.261 Q34.252,96.261 34.301,96.213 Q34.35,96.165 34.35,96.097 L34.35,95.482 Q34.35,95.413 34.301,95.365 Q34.252,95.318 34.186,95.318 L33.354,95.318 z" fill="#FFFBFB"/>
    <path d="M36.653,95.226 L37.014,95.962 Q37.09,96.113 37.09,96.288 Q37.09,96.46 37.014,96.613 L36.653,97.341 Q36.538,97.581 36.262,97.581 Q36.131,97.581 36.027,97.513 Q35.922,97.445 35.87,97.341 L35.506,96.613 Q35.434,96.47 35.434,96.288 Q35.434,96.107 35.506,95.962 L35.87,95.226 Q35.993,94.986 36.262,94.986 Q36.536,94.986 36.653,95.226 z M36.153,95.39 L35.813,96.081 Q35.766,96.185 35.766,96.284 Q35.766,96.392 35.813,96.489 L36.163,97.189 Q36.19,97.253 36.262,97.253 Q36.325,97.253 36.358,97.189 L36.709,96.489 Q36.758,96.386 36.758,96.284 Q36.758,96.177 36.709,96.081 L36.366,95.39 Q36.332,95.314 36.262,95.314 Q36.192,95.314 36.153,95.39 z" fill="#FFFBFB"/>
    <path d="M37.858,97.417 L37.858,94.986 L39.018,94.986 Q39.219,94.986 39.365,95.132 Q39.51,95.279 39.51,95.482 L39.51,95.669 Q39.51,95.874 39.366,96.02 Q39.221,96.165 39.018,96.165 L38.809,96.165 L39.481,97.318 Q39.512,97.368 39.512,97.419 Q39.512,97.486 39.461,97.533 Q39.411,97.581 39.346,97.581 Q39.248,97.581 39.198,97.493 L38.426,96.165 L38.19,96.165 L38.19,97.417 Q38.19,97.486 38.14,97.533 Q38.09,97.581 38.022,97.581 Q37.954,97.581 37.906,97.533 Q37.858,97.486 37.858,97.417 z M38.186,95.837 L39.018,95.837 Q39.086,95.837 39.134,95.789 Q39.182,95.741 39.182,95.673 L39.182,95.482 Q39.182,95.413 39.134,95.365 Q39.086,95.318 39.018,95.318 L38.186,95.318 z" fill="#FFFBFB"/>
    <path d="M40.266,95.433 L40.266,94.989 L41.922,94.989 L41.922,95.437 Q41.922,95.505 41.873,95.553 Q41.825,95.601 41.758,95.601 Q41.69,95.601 41.64,95.552 Q41.59,95.503 41.59,95.437 L41.59,95.318 L41.258,95.318 L41.258,97.417 Q41.258,97.486 41.209,97.533 Q41.161,97.581 41.094,97.581 Q41.024,97.581 40.975,97.533 Q40.926,97.486 40.926,97.417 L40.926,95.318 L40.594,95.318 L40.594,95.433 Q40.594,95.501 40.546,95.549 Q40.498,95.597 40.43,95.597 Q40.362,95.597 40.314,95.549 Q40.266,95.501 40.266,95.433 z" fill="#FFFBFB"/>
    <path d="M45.112,97.353 L45.776,95.109 Q45.815,94.986 45.94,94.986 Q46.061,94.986 46.092,95.089 L46.747,97.368 Q46.754,97.394 46.754,97.417 Q46.754,97.486 46.707,97.533 Q46.661,97.581 46.6,97.581 Q46.471,97.581 46.436,97.462 L46.303,97.017 L45.555,97.017 L45.411,97.493 Q45.405,97.525 45.362,97.553 Q45.319,97.581 45.268,97.581 Q45.196,97.581 45.149,97.532 Q45.102,97.484 45.102,97.413 Q45.102,97.384 45.112,97.353 z M45.936,95.745 L45.655,96.685 L46.207,96.685 z" fill="#FFFBFB"/>
    <path d="M33.022,101.417 L33.022,98.986 L34.186,98.986 Q34.387,98.986 34.533,99.132 Q34.678,99.279 34.678,99.482 L34.678,100.097 Q34.678,100.3 34.534,100.445 Q34.389,100.589 34.186,100.589 L33.354,100.589 L33.354,101.417 Q33.354,101.486 33.306,101.533 Q33.258,101.581 33.19,101.581 Q33.12,101.581 33.071,101.533 Q33.022,101.486 33.022,101.417 z M33.354,100.261 L34.186,100.261 Q34.252,100.261 34.301,100.213 Q34.35,100.165 34.35,100.097 L34.35,99.482 Q34.35,99.413 34.301,99.365 Q34.252,99.318 34.186,99.318 L33.354,99.318 z" fill="#FFFBFB"/>
    <path d="M36.653,99.226 L37.014,99.962 Q37.09,100.113 37.09,100.288 Q37.09,100.46 37.014,100.613 L36.653,101.341 Q36.538,101.581 36.262,101.581 Q36.131,101.581 36.027,101.513 Q35.922,101.445 35.87,101.341 L35.506,100.613 Q35.434,100.47 35.434,100.288 Q35.434,100.107 35.506,99.962 L35.87,99.226 Q35.993,98.986 36.262,98.986 Q36.536,98.986 36.653,99.226 z M36.153,99.39 L35.813,100.081 Q35.766,100.185 35.766,100.284 Q35.766,100.392 35.813,100.489 L36.163,101.189 Q36.19,101.253 36.262,101.253 Q36.325,101.253 36.358,101.189 L36.709,100.489 Q36.758,100.386 36.758,100.284 Q36.758,100.177 36.709,100.081 L36.366,99.39 Q36.332,99.314 36.262,99.314 Q36.192,99.314 36.153,99.39 z" fill="#FFFBFB"/>
    <path d="M38.846,100.001 L38.846,101.093 L38.942,101.253 L39.079,101.253 L39.178,101.089 L39.178,99.154 Q39.178,99.085 39.228,99.035 Q39.278,98.986 39.346,98.986 Q39.413,98.986 39.461,99.034 Q39.51,99.083 39.51,99.15 L39.51,101.142 Q39.51,101.179 39.469,101.245 L39.317,101.497 Q39.27,101.581 39.174,101.581 L38.866,101.581 Q38.719,101.581 38.678,101.448 Q38.633,101.581 38.498,101.581 L38.209,101.581 Q38.084,101.581 38.03,101.489 L37.889,101.253 Q37.85,101.189 37.85,101.142 L37.85,99.154 Q37.85,99.085 37.9,99.035 Q37.95,98.986 38.018,98.986 Q38.082,98.986 38.13,99.035 Q38.178,99.085 38.178,99.154 L38.178,101.097 L38.274,101.253 L38.414,101.253 L38.518,101.089 L38.518,100.001 Q38.518,99.933 38.566,99.885 Q38.614,99.837 38.682,99.837 Q38.75,99.837 38.798,99.885 Q38.846,99.933 38.846,100.001 z" fill="#FFFBFB"/>
    <path d="M41.758,99.318 L40.598,99.318 L40.598,100.116 L41.098,100.116 Q41.164,100.116 41.213,100.165 Q41.262,100.214 41.262,100.28 Q41.262,100.351 41.214,100.4 Q41.166,100.448 41.098,100.448 L40.598,100.448 L40.598,101.253 L41.762,101.253 Q41.829,101.253 41.877,101.301 Q41.926,101.349 41.926,101.417 Q41.926,101.486 41.876,101.533 Q41.827,101.581 41.758,101.581 L40.27,101.581 L40.27,98.986 L41.758,98.986 Q41.827,98.986 41.876,99.035 Q41.926,99.085 41.926,99.154 Q41.926,99.22 41.876,99.269 Q41.827,99.318 41.758,99.318 z" fill="#FFFBFB"/>
    <path d="M42.69,101.417 L42.69,98.986 L43.85,98.986 Q44.051,98.986 44.197,99.132 Q44.342,99.279 44.342,99.482 L44.342,99.669 Q44.342,99.874 44.198,100.02 Q44.053,100.165 43.85,100.165 L43.641,100.165 L44.313,101.318 Q44.344,101.368 44.344,101.419 Q44.344,101.486 44.293,101.533 Q44.243,101.581 44.178,101.581 Q44.081,101.581 44.03,101.493 L43.258,100.165 L43.022,100.165 L43.022,101.417 Q43.022,101.486 42.972,101.533 Q42.922,101.581 42.854,101.581 Q42.786,101.581 42.738,101.533 Q42.69,101.486 42.69,101.417 z M43.018,99.837 L43.85,99.837 Q43.918,99.837 43.966,99.789 Q44.014,99.741 44.014,99.673 L44.014,99.482 Q44.014,99.413 43.966,99.365 Q43.918,99.318 43.85,99.318 L43.018,99.318 z" fill="#FFFBFB"/>
    <path d="M33.022,105.417 L33.022,102.986 L34.186,102.986 Q34.387,102.986 34.533,103.132 Q34.678,103.279 34.678,103.482 L34.678,104.097 Q34.678,104.3 34.534,104.445 Q34.389,104.589 34.186,104.589 L33.354,104.589 L33.354,105.417 Q33.354,105.486 33.306,105.533 Q33.258,105.581 33.19,105.581 Q33.12,105.581 33.071,105.533 Q33.022,105.486 33.022,105.417 z M33.354,104.261 L34.186,104.261 Q34.252,104.261 34.301,104.213 Q34.35,104.165 34.35,104.097 L34.35,103.482 Q34.35,103.413 34.301,103.365 Q34.252,103.318 34.186,103.318 L33.354,103.318 z" fill="#FFFBFB"/>
    <path d="M36.653,103.226 L37.014,103.962 Q37.09,104.113 37.09,104.288 Q37.09,104.46 37.014,104.613 L36.653,105.341 Q36.538,105.581 36.262,105.581 Q36.131,105.581 36.027,105.513 Q35.922,105.445 35.87,105.341 L35.506,104.613 Q35.434,104.47 35.434,104.288 Q35.434,104.107 35.506,103.962 L35.87,103.226 Q35.993,102.986 36.262,102.986 Q36.536,102.986 36.653,103.226 z M36.153,103.39 L35.813,104.081 Q35.766,104.185 35.766,104.284 Q35.766,104.392 35.813,104.489 L36.163,105.189 Q36.19,105.253 36.262,105.253 Q36.325,105.253 36.358,105.189 L36.709,104.489 Q36.758,104.386 36.758,104.284 Q36.758,104.177 36.709,104.081 L36.366,103.39 Q36.332,103.314 36.262,103.314 Q36.192,103.314 36.153,103.39 z" fill="#FFFBFB"/>
    <path d="M37.858,105.417 L37.858,102.986 L39.018,102.986 Q39.219,102.986 39.365,103.132 Q39.51,103.279 39.51,103.482 L39.51,103.669 Q39.51,103.874 39.366,104.02 Q39.221,104.165 39.018,104.165 L38.809,104.165 L39.481,105.318 Q39.512,105.368 39.512,105.419 Q39.512,105.486 39.461,105.533 Q39.411,105.581 39.346,105.581 Q39.248,105.581 39.198,105.493 L38.426,104.165 L38.19,104.165 L38.19,105.417 Q38.19,105.486 38.14,105.533 Q38.09,105.581 38.022,105.581 Q37.954,105.581 37.906,105.533 Q37.858,105.486 37.858,105.417 z M38.186,103.837 L39.018,103.837 Q39.086,103.837 39.134,103.789 Q39.182,103.741 39.182,103.673 L39.182,103.482 Q39.182,103.413 39.134,103.365 Q39.086,103.318 39.018,103.318 L38.186,103.318 z" fill="#FFFBFB"/>
    <path d="M40.266,103.433 L40.266,102.989 L41.922,102.989 L41.922,103.437 Q41.922,103.505 41.873,103.553 Q41.825,103.601 41.758,103.601 Q41.69,103.601 41.64,103.552 Q41.59,103.503 41.59,103.437 L41.59,103.318 L41.258,103.318 L41.258,105.417 Q41.258,105.486 41.209,105.533 Q41.161,105.581 41.094,105.581 Q41.024,105.581 40.975,105.533 Q40.926,105.486 40.926,105.417 L40.926,103.318 L40.594,103.318 L40.594,103.433 Q40.594,103.501 40.546,103.549 Q40.498,103.597 40.43,103.597 Q40.362,103.597 40.314,103.549 Q40.266,103.501 40.266,103.433 z" fill="#FFFBFB"/>
    <path d="M46.754,104.777 L46.754,104.921 Q46.754,105.193 46.562,105.387 Q46.37,105.581 46.098,105.581 L45.094,105.581 L45.094,102.986 L46.098,102.986 Q46.37,102.986 46.562,103.179 Q46.754,103.372 46.754,103.646 L46.754,103.784 Q46.754,104.075 46.53,104.28 Q46.754,104.489 46.754,104.777 z M46.418,103.78 L46.418,103.646 Q46.418,103.509 46.322,103.411 Q46.225,103.314 46.09,103.314 L45.422,103.314 L45.422,104.109 L46.09,104.109 Q46.223,104.109 46.321,104.012 Q46.418,103.915 46.418,103.78 z M46.418,104.921 L46.418,104.784 Q46.418,104.648 46.322,104.55 Q46.225,104.452 46.09,104.452 L45.426,104.452 L45.426,105.249 L46.09,105.249 Q46.223,105.249 46.321,105.153 Q46.418,105.056 46.418,104.921 z" fill="#FFFBFB"/>
  </g>
  <g id="PORT_LABELS">
    <path d="M33.968,176.019 L31.604,175.211 L31.408,175.067 L31.444,175.259 L31.444,176.175 L31.168,176.175 L31.168,174.811 L31.276,174.811 L33.968,175.731 z" fill="#FFFBFB"/>
    <path d="M33.124,167.803 Q33.324,167.807 33.49,167.853 Q33.656,167.899 33.772,167.989 Q33.888,168.079 33.952,168.209 Q34.016,168.339 34.016,168.503 Q34.016,168.839 33.772,169.029 Q33.528,169.219 33.028,169.219 Q32.604,169.219 32.272,169.133 Q31.94,169.047 31.7,168.899 Q31.46,168.751 31.314,168.551 Q31.168,168.351 31.12,168.123 L31.352,168.043 Q31.4,168.223 31.512,168.371 Q31.624,168.519 31.784,168.631 Q31.944,168.743 32.144,168.817 Q32.344,168.891 32.572,168.919 Q32.464,168.867 32.384,168.745 Q32.304,168.623 32.304,168.443 Q32.304,168.155 32.508,167.981 Q32.712,167.807 33.124,167.803 z M33.152,168.095 Q32.564,168.095 32.564,168.519 Q32.564,168.671 32.66,168.779 Q32.756,168.887 32.876,168.931 Q32.928,168.939 32.978,168.939 Q33.028,168.939 33.072,168.935 Q33.204,168.939 33.326,168.913 Q33.448,168.887 33.544,168.833 Q33.64,168.779 33.698,168.697 Q33.756,168.615 33.756,168.503 Q33.756,168.323 33.596,168.209 Q33.436,168.095 33.152,168.095 z" fill="#FFFBFB"/>
    <path d="M31.168,160.847 L31.448,160.847 L31.448,161.607 L32.264,161.607 L32.252,161.471 Q32.256,161.151 32.472,160.967 Q32.688,160.783 33.092,160.779 Q33.316,160.783 33.488,160.845 Q33.66,160.907 33.778,161.015 Q33.896,161.123 33.956,161.267 Q34.016,161.411 34.016,161.575 Q34.016,161.851 33.94,162.019 L33.684,161.947 Q33.72,161.875 33.734,161.787 Q33.748,161.699 33.748,161.583 Q33.748,161.355 33.582,161.213 Q33.416,161.071 33.116,161.067 Q32.808,161.071 32.66,161.213 Q32.512,161.355 32.512,161.607 L32.532,161.871 L31.168,161.871 z" fill="#FFFBFB"/>
    <path d="M33.108,153.403 L33.108,153.775 L33.968,153.775 L33.968,154.055 L33.108,154.055 L33.108,155.047 L32.972,155.047 L31.124,153.987 L31.124,153.775 L32.848,153.775 L32.848,153.403 z M31.952,154.055 L31.608,154.015 L31.608,154.027 L31.916,154.147 L32.68,154.587 L32.876,154.739 L32.848,154.519 L32.848,154.055 z" fill="#FFFBFB"/>
    <path d="M33.664,147.607 Q33.708,147.531 33.732,147.433 Q33.756,147.335 33.756,147.207 Q33.756,147.099 33.712,147.009 Q33.668,146.919 33.588,146.853 Q33.508,146.787 33.398,146.751 Q33.288,146.715 33.156,146.715 Q32.86,146.715 32.724,146.845 Q32.588,146.975 32.588,147.207 L32.588,147.447 L32.472,147.447 L31.576,146.983 L31.408,146.827 L31.436,147.047 L31.436,147.675 L31.168,147.675 L31.168,146.515 L31.284,146.515 L32.24,147.027 L32.356,147.147 L32.364,147.147 L32.34,147.031 Q32.34,146.907 32.39,146.795 Q32.44,146.683 32.538,146.603 Q32.636,146.523 32.78,146.475 Q32.924,146.427 33.116,146.427 Q33.332,146.427 33.5,146.489 Q33.668,146.551 33.782,146.657 Q33.896,146.763 33.956,146.905 Q34.016,147.047 34.016,147.207 Q34.016,147.347 33.992,147.471 Q33.968,147.595 33.924,147.687 z" fill="#FFFBFB"/>
    <path d="M33.968,139.315 L33.968,140.611 L33.84,140.611 Q33.748,140.535 33.608,140.437 Q33.468,140.339 33.302,140.233 Q33.136,140.127 32.95,140.025 Q32.764,139.923 32.572,139.843 Q32.38,139.763 32.192,139.713 Q32.004,139.663 31.832,139.663 Q31.628,139.663 31.504,139.755 Q31.38,139.847 31.38,140.031 Q31.38,140.147 31.424,140.257 Q31.468,140.367 31.532,140.447 L31.324,140.559 Q31.228,140.447 31.174,140.293 Q31.12,140.139 31.12,139.967 Q31.12,139.671 31.302,139.517 Q31.484,139.363 31.78,139.363 Q32,139.363 32.24,139.429 Q32.48,139.495 32.714,139.597 Q32.948,139.699 33.164,139.823 Q33.38,139.947 33.548,140.067 L33.724,140.231 L33.736,140.231 L33.7,140.019 L33.7,139.315 z" fill="#FFFBFB"/>
    <path d="M33.7,133.307 L33.7,132.855 L31.752,132.855 L31.516,132.819 L31.708,132.955 L31.98,133.291 L31.8,133.443 L31.12,132.715 L31.12,132.567 L33.7,132.567 L33.7,132.131 L33.968,132.131 L33.968,133.307 z" fill="#FFFBFB"/>
    <path d="M32.568,126.383 Q32.184,126.383 31.908,126.335 Q31.632,126.287 31.458,126.191 Q31.284,126.095 31.202,125.955 Q31.12,125.815 31.12,125.635 Q31.12,125.443 31.202,125.301 Q31.284,125.159 31.458,125.067 Q31.632,124.975 31.908,124.931 Q32.184,124.887 32.568,124.887 Q32.956,124.887 33.23,124.935 Q33.504,124.983 33.678,125.079 Q33.852,125.175 33.934,125.313 Q34.016,125.451 34.016,125.631 Q34.016,125.827 33.932,125.969 Q33.848,126.111 33.672,126.203 Q33.496,126.295 33.222,126.339 Q32.948,126.383 32.568,126.383 z M32.568,126.083 Q33.14,126.083 33.448,125.975 Q33.756,125.867 33.756,125.627 Q33.756,125.395 33.474,125.289 Q33.192,125.183 32.568,125.183 Q32,125.183 31.69,125.285 Q31.38,125.387 31.38,125.635 Q31.38,125.867 31.66,125.975 Q31.94,126.083 32.568,126.083 z" fill="#FFFBFB"/>
    <path d="M33.563,120.714 Q33.607,120.638 33.631,120.54 Q33.655,120.442 33.655,120.314 Q33.655,120.206 33.611,120.116 Q33.567,120.026 33.487,119.96 Q33.407,119.894 33.297,119.858 Q33.187,119.822 33.055,119.822 Q32.759,119.822 32.623,119.952 Q32.487,120.082 32.487,120.314 L32.487,120.554 L32.371,120.554 L31.475,120.09 L31.307,119.934 L31.335,120.154 L31.335,120.782 L31.067,120.782 L31.067,119.622 L31.183,119.622 L32.139,120.134 L32.255,120.254 L32.263,120.254 L32.239,120.138 Q32.239,120.014 32.289,119.902 Q32.339,119.79 32.437,119.71 Q32.535,119.63 32.679,119.582 Q32.823,119.534 33.015,119.534 Q33.231,119.534 33.399,119.596 Q33.567,119.658 33.681,119.764 Q33.795,119.87 33.855,120.012 Q33.915,120.154 33.915,120.314 Q33.915,120.454 33.891,120.578 Q33.867,120.702 33.823,120.794 z" fill="#FFFBFB"/>
    <path d="M32.983,118.414 L33.411,118.342 L33.411,118.334 L32.975,118.254 L31.067,117.734 L31.067,117.426 L33.911,118.274 L33.911,118.434 L31.067,119.294 L31.067,118.962 z" fill="#FFFBFB"/>
    <path d="M33.563,117.062 Q33.607,116.986 33.631,116.888 Q33.655,116.79 33.655,116.662 Q33.655,116.554 33.611,116.464 Q33.567,116.374 33.487,116.308 Q33.407,116.242 33.297,116.206 Q33.187,116.17 33.055,116.17 Q32.759,116.17 32.623,116.3 Q32.487,116.43 32.487,116.662 L32.487,116.902 L32.371,116.902 L31.475,116.438 L31.307,116.282 L31.335,116.502 L31.335,117.13 L31.067,117.13 L31.067,115.97 L31.183,115.97 L32.139,116.482 L32.255,116.602 L32.263,116.602 L32.239,116.486 Q32.239,116.362 32.289,116.25 Q32.339,116.138 32.437,116.058 Q32.535,115.978 32.679,115.93 Q32.823,115.882 33.015,115.882 Q33.231,115.882 33.399,115.944 Q33.567,116.006 33.681,116.112 Q33.795,116.218 33.855,116.36 Q33.915,116.502 33.915,116.662 Q33.915,116.802 33.891,116.926 Q33.867,117.05 33.823,117.142 z" fill="#FFFBFB"/>
    <path d="M32.471,113.758 L32.471,112.986 L33.703,112.986 Q33.807,113.098 33.861,113.274 Q33.915,113.45 33.915,113.63 Q33.915,113.854 33.831,114.036 Q33.747,114.218 33.569,114.346 Q33.391,114.474 33.119,114.544 Q32.847,114.614 32.467,114.614 Q32.075,114.614 31.801,114.53 Q31.527,114.446 31.353,114.304 Q31.179,114.162 31.099,113.98 Q31.019,113.798 31.019,113.606 Q31.019,113.414 31.045,113.284 Q31.071,113.154 31.115,113.062 L31.387,113.134 Q31.343,113.214 31.319,113.324 Q31.295,113.434 31.295,113.578 Q31.295,113.718 31.355,113.846 Q31.415,113.974 31.553,114.076 Q31.691,114.178 31.915,114.238 Q32.139,114.298 32.467,114.298 Q33.067,114.298 33.353,114.108 Q33.639,113.918 33.639,113.586 Q33.639,113.378 33.539,113.242 L32.723,113.242 L32.647,113.758 z" fill="#FFFBFB"/>
    <path d="M32.091,112.134 L31.651,112.306 L31.651,112.318 L32.091,112.274 L33.867,112.274 L33.867,112.562 L31.023,112.562 L31.023,112.382 L32.839,111.346 L33.259,111.182 L33.259,111.166 L32.839,111.21 L31.067,111.21 L31.067,110.922 L33.911,110.922 L33.911,111.106 z" fill="#FFFBFB"/>
    <path d="M31.067,110.41 Q31.055,110.346 31.049,110.268 Q31.043,110.19 31.041,110.11 Q31.039,110.03 31.037,109.952 Q31.035,109.874 31.035,109.806 Q31.035,109.514 31.135,109.31 Q31.235,109.106 31.421,108.978 Q31.607,108.85 31.867,108.794 Q32.127,108.738 32.447,108.738 Q32.735,108.738 32.999,108.792 Q33.263,108.846 33.463,108.974 Q33.663,109.102 33.783,109.312 Q33.903,109.522 33.903,109.838 Q33.903,109.89 33.901,109.97 Q33.899,110.05 33.893,110.136 Q33.887,110.222 33.883,110.296 Q33.879,110.37 33.871,110.41 z M31.311,109.79 Q31.311,109.83 31.311,109.876 Q31.311,109.922 31.315,109.966 Q31.319,110.01 31.323,110.048 Q31.327,110.086 31.331,110.11 L33.611,110.11 Q33.615,110.094 33.617,110.052 Q33.619,110.01 33.621,109.964 Q33.623,109.918 33.625,109.876 Q33.627,109.834 33.627,109.814 Q33.627,109.594 33.531,109.446 Q33.435,109.298 33.273,109.212 Q33.111,109.126 32.897,109.09 Q32.683,109.054 32.443,109.054 Q32.231,109.054 32.027,109.086 Q31.823,109.118 31.665,109.2 Q31.507,109.282 31.409,109.424 Q31.311,109.566 31.311,109.79 z" fill="#FFFBFB"/>
    <path d="M34.019,91.174 L31.655,90.366 L31.459,90.222 L31.495,90.414 L31.495,91.33 L31.219,91.33 L31.219,89.966 L31.327,89.966 L34.019,90.886 z" fill="#FFFBFB"/>
    <path d="M33.175,82.958 Q33.375,82.962 33.541,83.008 Q33.707,83.054 33.823,83.144 Q33.939,83.234 34.003,83.364 Q34.067,83.494 34.067,83.658 Q34.067,83.994 33.823,84.184 Q33.579,84.374 33.079,84.374 Q32.655,84.374 32.323,84.288 Q31.991,84.202 31.751,84.054 Q31.511,83.906 31.365,83.706 Q31.219,83.506 31.171,83.278 L31.403,83.198 Q31.451,83.378 31.563,83.526 Q31.675,83.674 31.835,83.786 Q31.995,83.898 32.195,83.972 Q32.395,84.046 32.623,84.074 Q32.515,84.022 32.435,83.9 Q32.355,83.778 32.355,83.598 Q32.355,83.31 32.559,83.136 Q32.763,82.962 33.175,82.958 z M33.203,83.25 Q32.615,83.25 32.615,83.674 Q32.615,83.826 32.711,83.934 Q32.807,84.042 32.927,84.086 Q32.979,84.094 33.029,84.094 Q33.079,84.094 33.123,84.09 Q33.255,84.094 33.377,84.068 Q33.499,84.042 33.595,83.988 Q33.691,83.934 33.749,83.852 Q33.807,83.77 33.807,83.658 Q33.807,83.478 33.647,83.364 Q33.487,83.25 33.203,83.25 z" fill="#FFFBFB"/>
    <path d="M31.219,76.002 L31.499,76.002 L31.499,76.762 L32.315,76.762 L32.303,76.626 Q32.307,76.306 32.523,76.122 Q32.739,75.938 33.143,75.934 Q33.367,75.938 33.539,76 Q33.711,76.062 33.829,76.17 Q33.947,76.278 34.007,76.422 Q34.067,76.566 34.067,76.73 Q34.067,77.006 33.991,77.174 L33.735,77.102 Q33.771,77.03 33.785,76.942 Q33.799,76.854 33.799,76.738 Q33.799,76.51 33.633,76.368 Q33.467,76.226 33.167,76.222 Q32.859,76.226 32.711,76.368 Q32.563,76.51 32.563,76.762 L32.583,77.026 L31.219,77.026 z" fill="#FFFBFB"/>
    <path d="M33.159,68.558 L33.159,68.93 L34.019,68.93 L34.019,69.21 L33.159,69.21 L33.159,70.202 L33.023,70.202 L31.175,69.142 L31.175,68.93 L32.899,68.93 L32.899,68.558 z M32.003,69.21 L31.659,69.17 L31.659,69.182 L31.967,69.302 L32.731,69.742 L32.927,69.894 L32.899,69.674 L32.899,69.21 z" fill="#FFFBFB"/>
    <path d="M33.715,62.762 Q33.759,62.686 33.783,62.588 Q33.807,62.49 33.807,62.362 Q33.807,62.254 33.763,62.164 Q33.719,62.074 33.639,62.008 Q33.559,61.942 33.449,61.906 Q33.339,61.87 33.207,61.87 Q32.911,61.87 32.775,62 Q32.639,62.13 32.639,62.362 L32.639,62.602 L32.523,62.602 L31.627,62.138 L31.459,61.982 L31.487,62.202 L31.487,62.83 L31.219,62.83 L31.219,61.67 L31.335,61.67 L32.291,62.182 L32.407,62.302 L32.415,62.302 L32.391,62.186 Q32.391,62.062 32.441,61.95 Q32.491,61.838 32.589,61.758 Q32.687,61.678 32.831,61.63 Q32.975,61.582 33.167,61.582 Q33.383,61.582 33.551,61.644 Q33.719,61.706 33.833,61.812 Q33.947,61.918 34.007,62.06 Q34.067,62.202 34.067,62.362 Q34.067,62.502 34.043,62.626 Q34.019,62.75 33.975,62.842 z" fill="#FFFBFB"/>
    <path d="M34.019,54.47 L34.019,55.766 L33.891,55.766 Q33.799,55.69 33.659,55.592 Q33.519,55.494 33.353,55.388 Q33.187,55.282 33.001,55.18 Q32.815,55.078 32.623,54.998 Q32.431,54.918 32.243,54.868 Q32.055,54.818 31.883,54.818 Q31.679,54.818 31.555,54.91 Q31.431,55.002 31.431,55.186 Q31.431,55.302 31.475,55.412 Q31.519,55.522 31.583,55.602 L31.375,55.714 Q31.279,55.602 31.225,55.448 Q31.171,55.294 31.171,55.122 Q31.171,54.826 31.353,54.672 Q31.535,54.518 31.831,54.518 Q32.051,54.518 32.291,54.584 Q32.531,54.65 32.765,54.752 Q32.999,54.854 33.215,54.978 Q33.431,55.102 33.599,55.222 L33.775,55.386 L33.787,55.386 L33.751,55.174 L33.751,54.47 z" fill="#FFFBFB"/>
    <path d="M33.751,48.462 L33.751,48.01 L31.803,48.01 L31.567,47.974 L31.759,48.11 L32.031,48.446 L31.851,48.598 L31.171,47.87 L31.171,47.722 L33.751,47.722 L33.751,47.286 L34.019,47.286 L34.019,48.462 z" fill="#FFFBFB"/>
    <path d="M32.619,41.538 Q32.235,41.538 31.959,41.49 Q31.683,41.442 31.509,41.346 Q31.335,41.25 31.253,41.11 Q31.171,40.97 31.171,40.79 Q31.171,40.598 31.253,40.456 Q31.335,40.314 31.509,40.222 Q31.683,40.13 31.959,40.086 Q32.235,40.042 32.619,40.042 Q33.007,40.042 33.281,40.09 Q33.555,40.138 33.729,40.234 Q33.903,40.33 33.985,40.468 Q34.067,40.606 34.067,40.786 Q34.067,40.982 33.983,41.124 Q33.899,41.266 33.723,41.358 Q33.547,41.45 33.273,41.494 Q32.999,41.538 32.619,41.538 z M32.619,41.238 Q33.191,41.238 33.499,41.13 Q33.807,41.022 33.807,40.782 Q33.807,40.55 33.525,40.444 Q33.243,40.338 32.619,40.338 Q32.051,40.338 31.741,40.44 Q31.431,40.542 31.431,40.79 Q31.431,41.022 31.711,41.13 Q31.991,41.238 32.619,41.238 z" fill="#FFFBFB"/>
    <path d="M33.613,35.87 Q33.657,35.794 33.681,35.696 Q33.705,35.598 33.705,35.47 Q33.705,35.362 33.661,35.272 Q33.617,35.182 33.537,35.116 Q33.457,35.05 33.347,35.014 Q33.237,34.978 33.105,34.978 Q32.809,34.978 32.673,35.108 Q32.537,35.238 32.537,35.47 L32.537,35.71 L32.421,35.71 L31.525,35.246 L31.357,35.09 L31.385,35.31 L31.385,35.938 L31.117,35.938 L31.117,34.778 L31.233,34.778 L32.189,35.29 L32.305,35.41 L32.313,35.41 L32.289,35.294 Q32.289,35.17 32.339,35.058 Q32.389,34.946 32.487,34.866 Q32.585,34.786 32.729,34.738 Q32.873,34.69 33.065,34.69 Q33.281,34.69 33.449,34.752 Q33.617,34.814 33.731,34.92 Q33.845,35.026 33.905,35.168 Q33.965,35.31 33.965,35.47 Q33.965,35.61 33.941,35.734 Q33.917,35.858 33.873,35.95 z" fill="#FFFBFB"/>
    <path d="M33.033,33.57 L33.461,33.498 L33.461,33.49 L33.025,33.41 L31.117,32.89 L31.117,32.582 L33.961,33.43 L33.961,33.59 L31.117,34.45 L31.117,34.118 z" fill="#FFFBFB"/>
    <path d="M33.613,32.218 Q33.657,32.142 33.681,32.044 Q33.705,31.946 33.705,31.818 Q33.705,31.71 33.661,31.62 Q33.617,31.53 33.537,31.464 Q33.457,31.398 33.347,31.362 Q33.237,31.326 33.105,31.326 Q32.809,31.326 32.673,31.456 Q32.537,31.586 32.537,31.818 L32.537,32.058 L32.421,32.058 L31.525,31.594 L31.357,31.438 L31.385,31.658 L31.385,32.286 L31.117,32.286 L31.117,31.126 L31.233,31.126 L32.189,31.638 L32.305,31.758 L32.313,31.758 L32.289,31.642 Q32.289,31.518 32.339,31.406 Q32.389,31.294 32.487,31.214 Q32.585,31.134 32.729,31.086 Q32.873,31.038 33.065,31.038 Q33.281,31.038 33.449,31.1 Q33.617,31.162 33.731,31.268 Q33.845,31.374 33.905,31.516 Q33.965,31.658 33.965,31.818 Q33.965,31.958 33.941,32.082 Q33.917,32.206 33.873,32.298 z" fill="#FFFBFB"/>
    <path d="M32.521,28.914 L32.521,28.142 L33.753,28.142 Q33.857,28.254 33.911,28.43 Q33.965,28.606 33.965,28.786 Q33.965,29.01 33.881,29.192 Q33.797,29.374 33.619,29.502 Q33.441,29.63 33.169,29.7 Q32.897,29.77 32.517,29.77 Q32.125,29.77 31.851,29.686 Q31.577,29.602 31.403,29.46 Q31.229,29.318 31.149,29.136 Q31.069,28.954 31.069,28.762 Q31.069,28.57 31.095,28.44 Q31.121,28.31 31.165,28.218 L31.437,28.29 Q31.393,28.37 31.369,28.48 Q31.345,28.59 31.345,28.734 Q31.345,28.874 31.405,29.002 Q31.465,29.13 31.603,29.232 Q31.741,29.334 31.965,29.394 Q32.189,29.454 32.517,29.454 Q33.117,29.454 33.403,29.264 Q33.689,29.074 33.689,28.742 Q33.689,28.534 33.589,28.398 L32.773,28.398 L32.697,28.914 z" fill="#FFFBFB"/>
    <path d="M32.141,27.29 L31.701,27.462 L31.701,27.474 L32.141,27.43 L33.917,27.43 L33.917,27.718 L31.073,27.718 L31.073,27.538 L32.889,26.502 L33.309,26.338 L33.309,26.322 L32.889,26.366 L31.117,26.366 L31.117,26.078 L33.961,26.078 L33.961,26.262 z" fill="#FFFBFB"/>
    <path d="M31.117,25.566 Q31.105,25.502 31.099,25.424 Q31.093,25.346 31.091,25.266 Q31.089,25.186 31.087,25.108 Q31.085,25.03 31.085,24.962 Q31.085,24.67 31.185,24.466 Q31.285,24.262 31.471,24.134 Q31.657,24.006 31.917,23.95 Q32.177,23.894 32.497,23.894 Q32.785,23.894 33.049,23.948 Q33.313,24.002 33.513,24.13 Q33.713,24.258 33.833,24.468 Q33.953,24.678 33.953,24.994 Q33.953,25.046 33.951,25.126 Q33.949,25.206 33.943,25.292 Q33.937,25.378 33.933,25.452 Q33.929,25.526 33.921,25.566 z M31.361,24.946 Q31.361,24.986 31.361,25.032 Q31.361,25.078 31.365,25.122 Q31.369,25.166 31.373,25.204 Q31.377,25.242 31.381,25.266 L33.661,25.266 Q33.665,25.25 33.667,25.208 Q33.669,25.166 33.671,25.12 Q33.673,25.074 33.675,25.032 Q33.677,24.99 33.677,24.97 Q33.677,24.75 33.581,24.602 Q33.485,24.454 33.323,24.368 Q33.161,24.282 32.947,24.246 Q32.733,24.21 32.493,24.21 Q32.281,24.21 32.077,24.242 Q31.873,24.274 31.715,24.356 Q31.557,24.438 31.459,24.58 Q31.361,24.722 31.361,24.946 z" fill="#FFFBFB"/>
  </g>
  <g id="POWER_IN">
    <path d="M43.034,25.385 L44.192,25.385 L44.192,27.233 Q44.024,27.389 43.76,27.47 Q43.496,27.551 43.226,27.551 Q42.89,27.551 42.617,27.425 Q42.344,27.299 42.152,27.032 Q41.96,26.765 41.855,26.357 Q41.75,25.949 41.75,25.379 Q41.75,24.791 41.876,24.38 Q42.002,23.969 42.215,23.708 Q42.428,23.447 42.701,23.327 Q42.974,23.207 43.262,23.207 Q43.55,23.207 43.745,23.246 Q43.94,23.285 44.078,23.351 L43.97,23.759 Q43.85,23.693 43.685,23.657 Q43.52,23.621 43.304,23.621 Q43.094,23.621 42.902,23.711 Q42.71,23.801 42.557,24.008 Q42.404,24.215 42.314,24.551 Q42.224,24.887 42.224,25.379 Q42.224,26.279 42.509,26.708 Q42.794,27.137 43.292,27.137 Q43.604,27.137 43.808,26.987 L43.808,25.763 L43.034,25.649 z" fill="#FFFBFB"/>
    <path d="M45.47,24.815 L45.212,24.155 L45.194,24.155 L45.26,24.815 L45.26,27.479 L44.828,27.479 L44.828,23.213 L45.098,23.213 L46.652,25.937 L46.898,26.567 L46.922,26.567 L46.856,25.937 L46.856,23.279 L47.288,23.279 L47.288,27.545 L47.012,27.545 z" fill="#FFFBFB"/>
    <path d="M48.056,23.279 Q48.152,23.261 48.269,23.252 Q48.386,23.243 48.506,23.24 Q48.626,23.237 48.743,23.234 Q48.86,23.231 48.962,23.231 Q49.4,23.231 49.706,23.381 Q50.012,23.531 50.204,23.81 Q50.396,24.089 50.48,24.479 Q50.564,24.869 50.564,25.349 Q50.564,25.781 50.483,26.177 Q50.402,26.573 50.21,26.873 Q50.018,27.173 49.703,27.353 Q49.388,27.533 48.914,27.533 Q48.836,27.533 48.716,27.53 Q48.596,27.527 48.467,27.518 Q48.338,27.509 48.227,27.503 Q48.116,27.497 48.056,27.485 z M48.986,23.645 Q48.926,23.645 48.857,23.645 Q48.788,23.645 48.722,23.651 Q48.656,23.657 48.599,23.663 Q48.542,23.669 48.506,23.675 L48.506,27.095 Q48.53,27.101 48.593,27.104 Q48.656,27.107 48.725,27.11 Q48.794,27.113 48.857,27.116 Q48.92,27.119 48.95,27.119 Q49.28,27.119 49.502,26.975 Q49.724,26.831 49.853,26.588 Q49.982,26.345 50.036,26.024 Q50.09,25.703 50.09,25.343 Q50.09,25.025 50.042,24.719 Q49.994,24.413 49.871,24.176 Q49.748,23.939 49.535,23.792 Q49.322,23.645 48.986,23.645 z" fill="#FFFBFB"/>
    <path d="M42.86,30.579 L42.86,30.999 L41.72,30.999 L41.72,32.223 L41.924,32.205 Q42.404,32.211 42.68,32.535 Q42.956,32.859 42.962,33.465 Q42.956,33.801 42.863,34.059 Q42.77,34.317 42.608,34.494 Q42.446,34.671 42.23,34.761 Q42.014,34.851 41.768,34.851 Q41.354,34.851 41.102,34.737 L41.21,34.353 Q41.318,34.407 41.45,34.428 Q41.582,34.449 41.756,34.449 Q42.098,34.449 42.311,34.2 Q42.524,33.951 42.53,33.501 Q42.524,33.039 42.311,32.817 Q42.098,32.595 41.72,32.595 L41.324,32.625 L41.324,30.579 z" fill="#FFFBFB"/>
    <path d="M44.726,33.453 L44.834,34.095 L44.846,34.095 L44.966,33.441 L45.746,30.579 L46.208,30.579 L44.936,34.845 L44.696,34.845 L43.406,30.579 L43.904,30.579 z" fill="#FFFBFB"/>
    <path d="M46.67,30.579 L47.12,30.579 L47.12,34.779 L46.67,34.779 z" fill="#FFFBFB"/>
    <path d="M48.62,32.115 L48.362,31.455 L48.344,31.455 L48.41,32.115 L48.41,34.779 L47.978,34.779 L47.978,30.513 L48.248,30.513 L49.802,33.237 L50.048,33.867 L50.072,33.867 L50.006,33.237 L50.006,30.579 L50.438,30.579 L50.438,34.845 L50.162,34.845 z" fill="#FFFBFB"/>
    <path d="M47.486,37.879 L47.486,38.299 L46.346,38.299 L46.346,39.523 L46.55,39.505 Q47.03,39.511 47.306,39.835 Q47.582,40.159 47.588,40.765 Q47.582,41.101 47.489,41.359 Q47.396,41.617 47.234,41.794 Q47.072,41.971 46.856,42.061 Q46.64,42.151 46.394,42.151 Q45.98,42.151 45.728,42.037 L45.836,41.653 Q45.944,41.707 46.076,41.728 Q46.208,41.749 46.382,41.749 Q46.724,41.749 46.937,41.5 Q47.15,41.251 47.156,40.801 Q47.15,40.339 46.937,40.117 Q46.724,39.895 46.346,39.895 L45.95,39.925 L45.95,37.879 z" fill="#FFFBFB"/>
    <path d="M49.352,40.753 L49.46,41.395 L49.472,41.395 L49.592,40.741 L50.372,37.879 L50.834,37.879 L49.562,42.145 L49.322,42.145 L48.032,37.879 L48.53,37.879 z" fill="#FFFBFB"/>
  </g>
  <g id="MT_UART">
    <path d="M108.245,20.581 L107.927,20.554 L107.927,20.566 L108.224,20.662 L109.136,21.085 L109.136,21.16 L108.224,21.604 L107.927,21.697 L107.927,21.709 L108.245,21.667 L109.625,21.667 L109.625,21.883 L107.525,21.883 L107.525,21.694 L108.557,21.187 L108.803,21.112 L108.803,21.106 L108.554,21.034 L107.525,20.554 L107.525,20.356 L109.625,20.356 L109.625,20.581 z" fill="#FFFBFB"/>
    <path d="M107.732,18.615 L107.732,19.131 L109.625,19.131 L109.625,19.356 L107.732,19.356 L107.732,19.872 L107.525,19.872 L107.525,18.615 z" fill="#FFFBFB"/>
    <path d="M107.546,18.131 Q107.522,18.032 107.511,17.914 Q107.501,17.795 107.501,17.696 Q107.501,17.579 107.529,17.474 Q107.558,17.369 107.625,17.291 Q107.693,17.213 107.802,17.167 Q107.912,17.12 108.077,17.12 Q108.326,17.12 108.476,17.224 Q108.626,17.327 108.677,17.498 L108.788,17.384 L109.625,16.97 L109.625,17.231 L108.71,17.681 L108.665,17.906 L109.625,17.906 L109.625,18.131 z M108.515,17.906 L108.515,17.726 Q108.515,17.555 108.41,17.456 Q108.305,17.357 108.089,17.357 Q107.924,17.357 107.816,17.44 Q107.708,17.522 107.708,17.684 Q107.708,17.744 107.713,17.809 Q107.717,17.873 107.726,17.906 z" fill="#FFFBFB"/>
    <path d="M108.557,16.126 L107.525,16.63 L107.525,16.36 L108.236,16.033 L108.413,15.973 L108.236,15.913 L107.525,15.568 L107.525,15.319 L108.536,15.841 L109.625,15.295 L109.625,15.559 L108.872,15.922 L108.686,15.991 L108.872,16.054 L109.625,16.426 L109.625,16.678 z" fill="#FFFBFB"/>
    <path d="M108.245,12.677 L107.927,12.65 L107.927,12.662 L108.224,12.758 L109.136,13.181 L109.136,13.256 L108.224,13.7 L107.927,13.793 L107.927,13.805 L108.245,13.763 L109.625,13.763 L109.625,13.979 L107.525,13.979 L107.525,13.79 L108.557,13.283 L108.803,13.208 L108.803,13.202 L108.554,13.13 L107.525,12.65 L107.525,12.452 L109.625,12.452 L109.625,12.677 z" fill="#FFFBFB"/>
    <path d="M107.732,10.711 L107.732,11.227 L109.625,11.227 L109.625,11.452 L107.732,11.452 L107.732,11.968 L107.525,11.968 L107.525,10.711 z" fill="#FFFBFB"/>
    <path d="M107.732,9.06 L107.732,9.576 L109.625,9.576 L109.625,9.801 L107.732,9.801 L107.732,10.317 L107.525,10.317 L107.525,9.06 z" fill="#FFFBFB"/>
    <path d="M108.557,8.246 L107.525,8.75 L107.525,8.48 L108.236,8.153 L108.413,8.093 L108.236,8.033 L107.525,7.688 L107.525,7.439 L108.536,7.961 L109.625,7.415 L109.625,7.679 L108.872,8.042 L108.686,8.111 L108.872,8.174 L109.625,8.546 L109.625,8.798 z" fill="#FFFBFB"/>
    <path d="M108.578,5.52 L108.578,4.941 L109.502,4.941 Q109.58,5.025 109.621,5.157 Q109.661,5.289 109.661,5.424 Q109.661,5.592 109.598,5.729 Q109.535,5.865 109.402,5.961 Q109.268,6.057 109.064,6.11 Q108.86,6.162 108.575,6.162 Q108.281,6.162 108.076,6.099 Q107.87,6.036 107.74,5.93 Q107.609,5.823 107.549,5.687 Q107.489,5.55 107.489,5.406 Q107.489,5.262 107.509,5.165 Q107.528,5.067 107.561,4.998 L107.765,5.052 Q107.732,5.112 107.714,5.195 Q107.696,5.277 107.696,5.385 Q107.696,5.49 107.741,5.586 Q107.786,5.682 107.89,5.759 Q107.993,5.835 108.161,5.88 Q108.329,5.925 108.575,5.925 Q109.025,5.925 109.24,5.783 Q109.454,5.64 109.454,5.391 Q109.454,5.235 109.379,5.133 L108.767,5.133 L108.71,5.52 z" fill="#FFFBFB"/>
    <path d="M108.293,4.052 L107.963,4.181 L107.963,4.19 L108.293,4.157 L109.625,4.157 L109.625,4.373 L107.492,4.373 L107.492,4.238 L108.854,3.461 L109.169,3.338 L109.169,3.326 L108.854,3.359 L107.525,3.359 L107.525,3.143 L109.658,3.143 L109.658,3.281 z" fill="#FFFBFB"/>
    <path d="M107.525,2.509 Q107.516,2.461 107.511,2.403 Q107.507,2.344 107.506,2.284 Q107.504,2.224 107.503,2.166 Q107.501,2.107 107.501,2.056 Q107.501,1.837 107.576,1.684 Q107.651,1.531 107.79,1.435 Q107.93,1.339 108.125,1.297 Q108.32,1.255 108.56,1.255 Q108.776,1.255 108.974,1.296 Q109.172,1.336 109.322,1.432 Q109.472,1.528 109.562,1.686 Q109.652,1.843 109.652,2.08 Q109.652,2.119 109.65,2.179 Q109.649,2.239 109.645,2.304 Q109.64,2.368 109.637,2.424 Q109.634,2.479 109.628,2.509 z M107.708,2.044 Q107.708,2.074 107.708,2.109 Q107.708,2.143 107.711,2.176 Q107.714,2.209 107.717,2.238 Q107.72,2.266 107.723,2.284 L109.433,2.284 Q109.436,2.272 109.438,2.241 Q109.439,2.209 109.44,2.175 Q109.442,2.14 109.444,2.109 Q109.445,2.077 109.445,2.062 Q109.445,1.897 109.373,1.786 Q109.301,1.675 109.18,1.611 Q109.058,1.546 108.897,1.519 Q108.737,1.492 108.557,1.492 Q108.398,1.492 108.245,1.516 Q108.092,1.54 107.974,1.602 Q107.855,1.663 107.782,1.77 Q107.708,1.876 107.708,2.044 z" fill="#FFFBFB"/>
    <path d="M111.014,32.641 Q111.071,32.674 111.145,32.692 Q111.218,32.71 111.314,32.71 Q111.395,32.71 111.463,32.677 Q111.53,32.644 111.58,32.584 Q111.629,32.524 111.656,32.441 Q111.683,32.359 111.683,32.26 Q111.683,32.038 111.586,31.936 Q111.488,31.834 111.314,31.834 L111.134,31.834 L111.134,31.747 L111.482,31.075 L111.599,30.949 L111.434,30.97 L110.963,30.97 L110.963,30.769 L111.833,30.769 L111.833,30.856 L111.449,31.573 L111.359,31.66 L111.359,31.666 L111.446,31.648 Q111.539,31.648 111.623,31.685 Q111.707,31.723 111.767,31.796 Q111.827,31.87 111.863,31.978 Q111.899,32.086 111.899,32.23 Q111.899,32.392 111.853,32.518 Q111.806,32.644 111.727,32.729 Q111.647,32.815 111.541,32.86 Q111.434,32.905 111.314,32.905 Q111.209,32.905 111.116,32.887 Q111.023,32.869 110.954,32.836 z" fill="#FFFBFB"/>
    <path d="M112.452,32.734 Q112.452,32.65 112.493,32.608 Q112.533,32.566 112.602,32.566 Q112.671,32.566 112.712,32.608 Q112.752,32.65 112.752,32.734 Q112.752,32.821 112.712,32.863 Q112.671,32.905 112.602,32.905 Q112.533,32.905 112.493,32.863 Q112.452,32.821 112.452,32.734 z" fill="#FFFBFB"/>
    <path d="M113.329,32.641 Q113.386,32.674 113.46,32.692 Q113.533,32.71 113.629,32.71 Q113.71,32.71 113.778,32.677 Q113.845,32.644 113.895,32.584 Q113.944,32.524 113.971,32.441 Q113.998,32.359 113.998,32.26 Q113.998,32.038 113.901,31.936 Q113.803,31.834 113.629,31.834 L113.449,31.834 L113.449,31.747 L113.797,31.075 L113.914,30.949 L113.749,30.97 L113.278,30.97 L113.278,30.769 L114.148,30.769 L114.148,30.856 L113.764,31.573 L113.674,31.66 L113.674,31.666 L113.761,31.648 Q113.854,31.648 113.938,31.685 Q114.022,31.723 114.082,31.796 Q114.142,31.87 114.178,31.978 Q114.214,32.086 114.214,32.23 Q114.214,32.392 114.168,32.518 Q114.121,32.644 114.042,32.729 Q113.962,32.815 113.856,32.86 Q113.749,32.905 113.629,32.905 Q113.524,32.905 113.431,32.887 Q113.338,32.869 113.269,32.836 z" fill="#FFFBFB"/>
    <path d="M115.304,32.206 L115.358,32.527 L115.364,32.527 L115.424,32.2 L115.814,30.769 L116.045,30.769 L115.409,32.902 L115.289,32.902 L114.644,30.769 L114.893,30.769 z" fill="#FFFBFB"/>
  </g>
  <g id="LOGO">
    <g>
      <path d="M55.238,171.536 C55.238,170.994 55.677,170.553 56.22,170.553 C56.764,170.553 57.203,170.994 57.203,171.536 C57.203,172.078 56.764,172.519 56.22,172.519 C55.677,172.519 55.238,172.078 55.238,171.536 z" fill-opacity="0" stroke="#FFFFFF" stroke-width="0.5" stroke-linecap="round"/>
      <path d="M58.992,173.136 L67.14,177.84 L73.143,174.374" fill-opacity="0" stroke="#FFFFFF" stroke-width="0.5" stroke-linecap="round"/>
      <path d="M58.992,173.136 L57.642,172.336" fill-opacity="0" stroke="#FFFFFF" stroke-width="0.5" stroke-linecap="square"/>
      <path d="M78.572,172.387 C78.102,172.659 77.501,172.498 77.229,172.028 C76.958,171.557 77.119,170.956 77.589,170.685 C78.059,170.414 78.66,170.574 78.932,171.044 C79.204,171.515 79.042,172.116 78.572,172.387 z" fill-opacity="0" stroke="#FFFFFF" stroke-width="0.5" stroke-linecap="round"/>
      <path d="M78.08,168.336 L78.08,158.928 L72.077,155.462" fill-opacity="0" stroke="#FFFFFF" stroke-width="0.5" stroke-linecap="round"/>
      <path d="M78.08,168.336 L78.063,169.905" fill-opacity="0" stroke="#FFFFFF" stroke-width="0.5" stroke-linecap="square"/>
      <path d="M55.268,171.537 C55.268,170.994 55.708,170.553 56.251,170.553 C56.794,170.554 57.234,170.994 57.234,171.536 C57.234,172.079 56.794,172.519 56.251,172.519 C55.708,172.519 55.268,172.079 55.268,171.537 z" fill-opacity="0" stroke="#FFFFFF" stroke-width="0.5" stroke-linecap="round"/>
      <path d="M59.022,173.137 L67.169,177.84 L73.173,174.375" fill-opacity="0" stroke="#FFFFFF" stroke-width="0.5" stroke-linecap="round"/>
      <path d="M59.022,173.137 L57.673,172.336" fill-opacity="0" stroke="#FFFFFF" stroke-width="0.5" stroke-linecap="square"/>
      <path d="M67.63,151.558 C68.101,151.829 68.262,152.431 67.991,152.901 C67.719,153.371 67.118,153.532 66.648,153.26 C66.178,152.989 66.017,152.388 66.288,151.918 C66.56,151.448 67.161,151.286 67.63,151.558 z" fill-opacity="0" stroke="#FFFFFF" stroke-width="0.5" stroke-linecap="round"/>
      <path d="M64.368,154.01 L56.221,158.713 L56.221,165.645" fill-opacity="0" stroke="#FFFFFF" stroke-width="0.5" stroke-linecap="round"/>
      <path d="M64.368,154.01 L65.736,153.24" fill-opacity="0" stroke="#FFFFFF" stroke-width="0.5" stroke-linecap="square"/>
    </g>
    <path d="M72.261,160.597 L66.878,160.597 L66.878,170.362 L68.593,170.362 L68.593,163.144 L72.261,163.144 z" fill="#FFFFFF"/>
    <path d="M61.018,160.597 L66.402,160.597 L66.402,170.362 L64.687,170.362 L64.687,163.144 L61.018,163.144 z" fill="#FFFFFF"/>
  </g>
  <g id="TESSEL_2">
    <path d="M81.641,163.996 L81.641,163.11 L84.953,163.11 L84.953,164.004 Q84.953,164.141 84.856,164.237 Q84.758,164.332 84.625,164.332 Q84.489,164.332 84.389,164.235 Q84.289,164.137 84.289,164.004 L84.289,163.766 L83.625,163.766 L83.625,167.965 Q83.625,168.102 83.528,168.198 Q83.43,168.293 83.297,168.293 Q83.157,168.293 83.059,168.198 Q82.961,168.102 82.961,167.965 L82.961,163.766 L82.297,163.766 L82.297,163.996 Q82.297,164.133 82.202,164.229 Q82.106,164.325 81.969,164.325 Q81.832,164.325 81.737,164.229 Q81.641,164.133 81.641,163.996 z" fill="#FFFBFB"/>
    <path d="M92.457,163.766 L90.137,163.766 L90.137,165.364 L91.137,165.364 Q91.27,165.364 91.368,165.461 Q91.465,165.559 91.465,165.692 Q91.465,165.832 91.37,165.93 Q91.274,166.028 91.137,166.028 L90.137,166.028 L90.137,167.637 L92.465,167.637 Q92.598,167.637 92.696,167.733 Q92.793,167.828 92.793,167.965 Q92.793,168.102 92.694,168.198 Q92.594,168.293 92.457,168.293 L89.481,168.293 L89.481,163.102 L92.457,163.102 Q92.594,163.102 92.694,163.202 Q92.793,163.301 92.793,163.438 Q92.793,163.571 92.694,163.668 Q92.594,163.766 92.457,163.766 z" fill="#FFFBFB"/>
    <path d="M98.055,163.102 L99.762,163.102 Q100.075,163.102 100.354,163.366 Q100.633,163.629 100.633,164.004 Q100.633,164.145 100.534,164.243 Q100.434,164.34 100.313,164.34 Q100.145,164.34 100.082,164.264 Q100.02,164.188 99.963,163.981 Q99.907,163.774 99.711,163.774 L98.09,163.774 Q97.973,163.774 97.973,163.848 Q97.973,163.895 98.024,163.957 L100.457,167.071 Q100.633,167.297 100.633,167.555 Q100.633,167.848 100.42,168.071 Q100.207,168.293 99.946,168.293 L98.176,168.293 Q97.825,168.293 97.565,168.026 Q97.305,167.758 97.305,167.438 Q97.305,167.071 97.649,167.071 Q97.782,167.071 97.875,167.166 Q97.969,167.262 97.969,167.391 Q97.969,167.496 98.041,167.567 Q98.114,167.637 98.223,167.637 L99.856,167.637 Q99.961,167.637 99.961,167.555 Q99.961,167.516 99.911,167.453 L97.481,164.34 Q97.309,164.118 97.309,163.856 Q97.309,163.551 97.528,163.326 Q97.746,163.102 98.055,163.102 z" fill="#FFFBFB"/>
    <path d="M105.887,163.102 L107.594,163.102 Q107.907,163.102 108.186,163.366 Q108.465,163.629 108.465,164.004 Q108.465,164.145 108.366,164.243 Q108.266,164.34 108.145,164.34 Q107.977,164.34 107.914,164.264 Q107.852,164.188 107.795,163.981 Q107.739,163.774 107.543,163.774 L105.922,163.774 Q105.805,163.774 105.805,163.848 Q105.805,163.895 105.856,163.957 L108.289,167.071 Q108.465,167.297 108.465,167.555 Q108.465,167.848 108.252,168.071 Q108.039,168.293 107.778,168.293 L106.008,168.293 Q105.657,168.293 105.397,168.026 Q105.137,167.758 105.137,167.438 Q105.137,167.071 105.481,167.071 Q105.614,167.071 105.707,167.166 Q105.801,167.262 105.801,167.391 Q105.801,167.496 105.873,167.567 Q105.946,167.637 106.055,167.637 L107.688,167.637 Q107.793,167.637 107.793,167.555 Q107.793,167.516 107.743,167.453 L105.313,164.34 Q105.141,164.118 105.141,163.856 Q105.141,163.551 105.36,163.326 Q105.578,163.102 105.887,163.102 z" fill="#FFFBFB"/>
    <path d="M115.953,163.766 L113.633,163.766 L113.633,165.364 L114.633,165.364 Q114.766,165.364 114.864,165.461 Q114.961,165.559 114.961,165.692 Q114.961,165.832 114.866,165.93 Q114.77,166.028 114.633,166.028 L113.633,166.028 L113.633,167.637 L115.961,167.637 Q116.094,167.637 116.192,167.733 Q116.289,167.828 116.289,167.965 Q116.289,168.102 116.19,168.198 Q116.09,168.293 115.953,168.293 L112.977,168.293 L112.977,163.102 L115.953,163.102 Q116.09,163.102 116.19,163.201 Q116.289,163.301 116.289,163.438 Q116.289,163.571 116.19,163.668 Q116.09,163.766 115.953,163.766 z" fill="#FFFBFB"/>
    <path d="M120.809,168.293 L120.809,163.43 Q120.809,163.297 120.907,163.2 Q121.004,163.102 121.137,163.102 Q121.27,163.102 121.368,163.2 Q121.465,163.297 121.465,163.43 L121.465,167.637 L123.786,167.637 Q123.922,167.637 124.022,167.733 Q124.121,167.828 124.121,167.965 Q124.121,168.102 124.022,168.198 Q123.922,168.293 123.786,168.293 z" fill="#FFFBFB"/>
    <path d="M139.45,168.285 L136.465,168.285 L136.465,166.02 Q136.465,165.746 136.659,165.551 Q136.852,165.356 137.121,165.356 L139.114,165.356 L139.114,163.758 L136.77,163.758 Q136.629,163.758 136.536,163.662 Q136.442,163.567 136.442,163.43 Q136.442,163.293 136.536,163.198 Q136.629,163.102 136.77,163.102 L139.114,163.102 Q139.387,163.102 139.582,163.295 Q139.778,163.489 139.778,163.758 L139.778,165.356 Q139.778,165.633 139.582,165.826 Q139.387,166.02 139.114,166.02 L137.121,166.02 L137.121,167.629 L139.45,167.629 Q139.582,167.629 139.68,167.725 Q139.778,167.821 139.778,167.957 Q139.778,168.094 139.68,168.19 Q139.582,168.285 139.45,168.285 z" fill="#FFFBFB"/>
  </g>
  <g id="Circuits">
    <path d="M101.566,135.757 L75.372,109.562 L101.519,83.415 L127.713,109.61 L101.566,135.757 z" fill="#333333"/>
    <path d="M38.929,172.632 L38.929,162.894 L53.746,162.894 L53.746,172.632 L38.929,172.632 z" fill="#6D6D6D"/>
    <g>
      <path d="M46.637,171.402 C44.554,171.402 42.86,169.707 42.86,167.623 C42.86,165.54 44.554,163.844 46.637,163.844 C48.722,163.844 50.417,165.538 50.417,167.623 C50.414,169.707 48.719,171.402 46.637,171.402 z" fill="#BCA16A"/>
      <path d="M46.637,171.657 C44.414,171.657 42.606,169.847 42.606,167.625 C42.606,165.4 44.416,163.593 46.637,163.593 C48.859,163.593 50.667,165.401 50.67,167.625 C50.67,169.849 48.86,171.657 46.637,171.657 z M46.637,171.15 C48.583,171.15 50.163,169.571 50.163,167.625 C50.163,165.678 48.583,164.1 46.637,164.1 C44.691,164.1 43.113,165.677 43.113,167.625 C43.113,169.571 44.691,171.15 46.637,171.15 z" fill="#606060"/>
    </g>
    <g opacity="0.2" display="none">
      <path d="M138.701,22.545 C140.028,23.086 139.516,22.749 140.324,23.409 C141.553,24.639 141.553,26.629 140.324,27.859 L135.876,23.409 C136.821,22.506 137.484,22.545 138.701,22.545 z" fill="#BCA16A"/>
      <path d="M138.701,22.545 C140.028,23.086 139.516,22.749 140.324,23.409 C141.553,24.639 141.553,26.629 140.324,27.859 L135.876,23.409 C136.821,22.506 137.484,22.545 138.701,22.545 z" fill-opacity="0" stroke="#FFFFFF" stroke-width="2.21" stroke-miterlimit="10"/>
    </g>
    <g opacity="0.2" display="none">
      <path d="M135.892,23.393 L140.34,27.843 C139.112,29.072 137.12,29.072 135.892,27.843 C134.663,26.614 134.663,24.623 135.892,23.393 z" fill="#BCA16A"/>
      <path d="M135.892,23.393 L140.34,27.843 C139.112,29.072 137.12,29.072 135.892,27.843 C134.663,26.614 134.663,24.623 135.892,23.393 z" fill-opacity="0" stroke="#606060" stroke-width="2.21" stroke-miterlimit="10"/>
    </g>
    <path d="M48.15,152.956 L34.623,139.43 L48.125,125.928 L61.651,139.454 L48.15,152.956 z" fill="#333333"/>
    <g>
      <path d="M37.036,0.851 L55.367,0.851 L55.367,13.027 L37.036,13.027 z" fill="#B3B3B3"/>
      <path d="M39.016,1.85 L53.42,1.85 L53.42,13.03 L39.016,13.03 z" fill="#4D4D4D"/>
      <path d="M49.322,12.381 L50.288,12.381 L50.288,13.266 L49.322,13.266 z" fill="#666666"/>
      <path d="M50.199,12.482 L50.288,12.482 L50.288,13.266 L50.199,13.266 z" fill="#999999"/>
      <path d="M47.527,12.381 L48.491,12.381 L48.491,13.266 L47.527,13.266 z" fill="#666666"/>
      <path d="M48.405,12.482 L48.492,12.482 L48.492,13.266 L48.405,13.266 z" fill="#999999"/>
      <path d="M45.737,12.381 L46.7,12.381 L46.7,13.266 L45.737,13.266 z" fill="#666666"/>
      <path d="M46.614,12.482 L46.7,12.482 L46.7,13.266 L46.614,13.266 z" fill="#999999"/>
      <path d="M43.944,12.381 L44.907,12.381 L44.907,13.266 L43.944,13.266 z" fill="#666666"/>
      <path d="M44.821,12.482 L44.907,12.482 L44.907,13.266 L44.821,13.266 z" fill="#999999"/>
      <path d="M42.152,12.381 L43.114,12.381 L43.114,13.266 L42.152,13.266 z" fill="#666666"/>
      <path d="M43.029,12.482 L43.115,12.482 L43.115,13.266 L43.029,13.266 z" fill="#999999"/>
      <path d="M35.87,6.116 L36.838,6.116 L36.838,8.294 L35.87,8.294 z" fill="#666666"/>
      <path d="M55.594,6.116 L56.568,6.116 L56.568,8.294 L55.594,8.294 z" fill="#666666"/>
      <path d="M37.036,12.934 L55.367,12.934 L55.367,13.027 L37.036,13.027 z" fill="#CCCCCC"/>
      <path d="M36.843,0.853 L36.843,13.027 L40.991,13.027 L40.991,12.125 L40.991,12.034 L38.538,12.034 L38.538,11.847 L41.212,11.847 L41.212,11.858 L41.7,11.858 L41.7,13.027 L42.148,13.027 L50.283,13.027 L50.762,13.027 L50.762,11.858 L50.79,11.858 L50.79,11.858 L51.248,11.858 L51.248,11.849 L53.924,11.849 L53.924,12.035 L51.471,12.035 L51.471,13.028 L55.589,13.028 L55.589,0.854 L36.843,0.853 L36.843,0.853 z M40.266,8.278 L38.717,8.278 L38.717,2.523 L40.266,2.523 L40.266,8.278 z M47.748,12.73 L44.75,12.73 L44.75,12.128 L47.748,12.128 L47.748,12.73 z M53.844,8.278 L52.296,8.278 L52.294,2.523 L53.844,2.523 L53.844,8.278 L53.844,8.278 z" fill="#E6E6E6"/>
      <path d="M55.594,1.117 L55.594,0.774 L56.215,0 L56.57,0 z" fill="#B3B3B3"/>
      <path d="M55.594,0.774 L55.594,0.774 L55.594,0.389 L56.215,0 z" fill="#CCCCCC"/>
      <path d="M35.867,0 L36.222,0 L36.842,0.774 L36.842,1.117 z" fill="#B3B3B3"/>
      <path d="M36.222,0 L36.842,0.389 L36.843,0.774 L36.842,0.774 z" fill="#CCCCCC"/>
      <path d="M41.927,1.118 L42.391,1.118 L42.391,1.582 L41.927,1.582 z" fill="#F2F2F2"/>
      <path d="M43.956,1.118 L44.421,1.118 L44.421,1.582 L43.956,1.582 z" fill="#F2F2F2"/>
      <path d="M45.986,1.118 L46.449,1.118 L46.449,1.582 L45.986,1.582 z" fill="#F2F2F2"/>
      <path d="M48.014,1.118 L48.478,1.118 L48.478,1.582 L48.014,1.582 z" fill="#F2F2F2"/>
      <path d="M50.043,1.118 L50.505,1.118 L50.505,1.582 L50.043,1.582 z" fill="#F2F2F2"/>
      <path d="M50.412,1.118 L50.505,1.118 L50.505,1.582 L50.412,1.582 z" fill="#808080"/>
      <path d="M48.384,1.118 L48.477,1.118 L48.477,1.582 L48.384,1.582 z" fill="#808080"/>
      <path d="M46.354,1.118 L46.449,1.118 L46.449,1.582 L46.354,1.582 z" fill="#808080"/>
      <path d="M44.326,1.118 L44.42,1.118 L44.42,1.582 L44.326,1.582 z" fill="#808080"/>
      <path d="M42.296,1.118 L42.391,1.118 L42.391,1.582 L42.296,1.582 z" fill="#808080"/>
      <path d="M51.005,0.985 L50.505,0.985 L50.505,1.268 L50.041,1.268 L50.041,0.985 L48.475,0.985 L48.475,1.268 L48.012,1.268 L48.012,0.985 L46.447,0.985 L46.447,1.268 L45.984,1.268 L45.984,0.985 L44.418,0.985 L44.418,1.268 L43.953,1.268 L43.953,0.985 L42.39,0.985 L42.39,1.268 L41.927,1.268 L41.927,0.985 L41.612,0.985 L41.348,0.985 C41.272,0.985 41.208,1.031 41.208,1.09 L41.208,1.852 C41.208,1.909 41.27,1.956 41.348,1.956 L51.077,1.956 C51.155,1.956 51.22,1.91 51.22,1.852 L51.22,1.09 C51.22,1.033 51.157,0.985 51.077,0.985 L51.005,0.985 z" fill="#4D4D4D"/>
      <path d="M55.594,12.621 L55.367,13.029 L52.904,13.029 C52.904,13.029 55.145,12.947 55.225,12.828 C55.306,12.706 55.117,12.624 55.117,12.624 L55.594,12.621 L55.594,12.621 z" fill="#CCCCCC"/>
      <path d="M36.842,12.621 L37.066,13.029 L39.531,13.029 C39.531,13.029 37.291,12.945 37.211,12.826 C37.131,12.705 37.317,12.624 37.317,12.624 L36.842,12.621 L36.842,12.621 z" fill="#CCCCCC"/>
      <path d="M55.198,0.851 L55.594,0.851 L55.594,12.621 L54.104,12.621 z" fill="#F2F2F2"/>
      <path d="M36.842,0.851 L37.397,8.711 L37.948,12.621 L36.842,12.621 z" fill="#999999"/>
      <path d="M52.295,8.185 L53.842,8.185 L53.842,8.278 L52.295,8.278 z" fill="#CCCCCC"/>
      <path d="M38.717,8.185 L40.264,8.185 L40.264,8.278 L38.717,8.278 z" fill="#CCCCCC"/>
      <path d="M37.761,0.997 L54.675,0.997 L54.675,1.472 L37.761,1.472 z" fill="#B3B3B3"/>
      <path d="M37.761,0.851 L54.675,0.851 L54.675,1.076 L37.761,1.076 z" fill="#CCCCCC"/>
    </g>
    <g>
      <path d="M120.239,0.908 L162.237,0.908 L162.237,49.956 L120.239,49.956 z" fill="#1A1A1A"/>
      <path d="M151.842,11.008 C151.842,11.436 151.531,11.786 151.146,11.786 L148.606,11.786 C148.226,11.786 147.91,11.438 147.91,11.008 L147.91,0.779 C147.91,0.352 148.221,-0 148.606,-0 L151.146,-0 C151.526,-0 151.842,0.349 151.842,0.779 L151.842,11.008 z" fill="#B3B3B3"/>
      <path d="M134.564,11.008 C134.564,11.436 134.254,11.786 133.869,11.786 L131.328,11.786 C130.95,11.786 130.633,11.438 130.633,11.008 L130.633,0.779 C130.633,0.352 130.945,-0 131.328,-0 L133.869,-0 C134.249,-0 134.564,0.349 134.564,0.779 L134.564,11.008 z" fill="#B3B3B3"/>
      <path d="M151.842,11.008 C151.842,11.436 151.531,11.786 151.146,11.786 L148.606,11.786 C148.226,11.786 147.91,11.438 147.91,11.008 L147.91,9.744 L151.842,9.744 L151.842,11.008 L151.842,11.008 z" fill="#CCCCCC"/>
      <path d="M134.564,11.008 C134.564,11.436 134.254,11.786 133.869,11.786 L131.328,11.786 C130.95,11.786 130.633,11.438 130.633,11.008 L130.633,9.744 L134.564,9.744 L134.564,11.008 z" fill="#CCCCCC"/>
      <path d="M147.91,5.546 L151.841,5.546 L151.841,9.945 L147.91,9.945 z" fill="#999999"/>
      <path d="M130.633,5.546 L134.564,5.546 L134.564,9.945 L130.633,9.945 z" fill="#999999"/>
      <path d="M147.91,2.978 L151.841,2.978 L151.841,7.173 L147.91,7.173 z" fill="#B3B3B3"/>
      <path d="M130.633,2.978 L134.564,2.978 L134.564,7.173 L130.633,7.173 z" fill="#B3B3B3"/>
      <path d="M147.91,3.653 L151.841,3.653 L151.841,5.243 L147.91,5.243 z" fill="#CCCCCC"/>
      <path d="M130.633,3.653 L134.564,3.653 L134.564,5.243 L130.633,5.243 z" fill="#CCCCCC"/>
      <path d="M147.91,9.775 L151.841,9.775 L151.841,10.115 L147.91,10.115 z" fill="#E6E6E6"/>
      <path d="M147.906,10.175 L151.838,10.175 L151.838,10.704 L147.906,10.704 z" fill="#F2F2F2"/>
      <path d="M120.237,12.197 L120.237,56.21 L120.237,56.991 L120.929,56.991 L161.544,56.991 L162.236,56.991 L162.236,56.21 L162.236,12.197 L161.959,12.197 L161.959,0.908 L161.542,0.908 L153.265,0.908 L152.573,0.908 L152.528,1.684 L152.205,7.208 L151.883,12.734 C151.859,13.161 151.528,13.515 151.144,13.515 L148.586,13.515 C148.207,13.515 147.878,13.164 147.849,12.734 L147.528,7.208 L147.206,1.684 L147.206,1.684 L147.159,0.908 L146.465,0.908 L135.991,0.908 L135.299,0.908 L135.249,1.684 L135.249,1.684 L134.917,7.208 L134.582,12.735 C134.561,13.164 134.225,13.515 133.846,13.515 L131.324,13.515 C130.944,13.515 130.614,13.167 130.584,12.735 L130.252,7.208 L129.922,1.684 L129.922,1.684 L129.875,0.908 L129.186,0.908 L120.909,0.908 L120.494,0.908 L120.494,12.198 L120.237,12.197 L120.237,12.197 z" fill="#CCCCCC"/>
    </g>
    <path d="M67.916,1.22 L94.314,1.22 L94.314,25.277 L67.916,25.277 z" fill="#333333" id="_x30_.1.0.224.0.1"/>
    <path d="M64.076,2.371 L63.256,2.371 C63.256,1.969 63.173,1.708 63.031,1.623 C62.981,1.604 62.518,1.543 62.201,1.543 L62.201,1.037 L62.201,0.791 L62.201,0.748 L62.201,0.633 L62.201,0 C62.695,0 63.278,0.083 63.483,0.203 C64.027,0.536 64.074,1.208 64.076,1.505 L64.078,1.506 L64.078,2.067 L64.06,2.053 C64.074,2.192 64.076,2.303 64.076,2.371 z" fill="#B0B0B0" id="_x30_.1.0.224.0.2"/>
    <path d="M63.132,1.727 C63.215,1.856 63.254,2.076 63.254,2.372 L64.074,2.372 L64.074,1.581 C64.074,1.37 64.068,0.806 63.721,0.41 C63.617,0.299 63.567,0.173 63.053,0.071 C63.139,0.202 63.132,1.727 63.132,1.727 z" fill="#8F8F8F" id="_x30_.1.0.224.0.3"/>
    <g>
      <path d="M86.465,30.214 L88.679,30.214 L88.679,31.683 L86.465,31.683 z" fill="#4D4D4D" id="_x30_.1.0.224.0.4"/>
      <path d="M81.494,30.214 L83.703,30.214 L83.703,31.683 L81.494,31.683 z" fill="#4D4D4D" id="_x30_.1.0.224.0.5"/>
      <path d="M77.07,30.214 L79.281,30.214 L79.281,31.683 L77.07,31.683 z" fill="#4D4D4D" id="_x30_.1.0.224.0.6"/>
      <path d="M72.093,30.214 L74.307,30.214 L74.307,31.683 L72.093,31.683 z" fill="#4D4D4D" id="_x30_.1.0.224.0.7"/>
    </g>
    <path d="M98.688,2.371 L99.508,2.371 C99.508,1.969 99.591,1.708 99.734,1.623 C99.792,1.604 100.249,1.543 100.564,1.543 L100.564,1.037 L100.564,0.791 L100.564,0.748 L100.564,0.633 L100.564,0 C100.068,0 99.485,0.083 99.284,0.203 C98.734,0.536 98.692,1.208 98.688,1.505 L98.688,1.506 L98.688,2.067 L98.707,2.053 C98.688,2.192 98.688,2.303 98.688,2.371 z" fill="#B0B0B0" id="_x30_.1.0.224.0.8"/>
    <path d="M99.704,0.075 C99.196,0.175 99.141,0.31 99.038,0.414 C98.691,0.806 98.688,1.368 98.688,1.583 L98.688,2.373 L99.508,2.373 C99.508,2.077 99.554,1.857 99.627,1.731 C99.631,1.727 99.625,0.202 99.704,0.075 z" fill="#8F8F8F" id="_x30_.1.0.224.0.9"/>
    <path d="M99.754,19.766 L99.754,1.683 L98.444,1.683 L98.444,1.037 L64.111,1.037 L64.111,1.683 L62.801,1.683 L62.801,19.766 L99.754,19.766 L99.754,19.766 z M86.436,1.734 C86.48,1.59 86.76,1.474 87.088,1.474 L90.739,1.474 C91.061,1.474 91.362,1.592 91.395,1.734 L93.693,11.422 C93.74,11.564 93.483,11.681 93.164,11.681 L92.628,11.681 C92.304,11.681 92.01,11.564 91.976,11.422 L90.237,3.278 C90.214,3.13 89.932,3.013 89.587,3.013 L88.234,3.013 C87.918,3.013 87.607,3.135 87.576,3.278 L85.851,11.421 C85.814,11.564 85.544,11.681 85.199,11.681 L84.668,11.681 C84.346,11.681 84.101,11.564 84.132,11.422 L86.436,1.734 z M71.151,1.734 C71.2,1.59 71.478,1.474 71.808,1.474 L75.452,1.474 C75.779,1.474 76.078,1.592 76.113,1.734 L78.413,11.422 C78.455,11.564 78.204,11.682 77.884,11.682 L77.35,11.682 C77.025,11.682 76.73,11.564 76.695,11.422 L74.958,3.278 C74.932,3.13 74.651,3.013 74.308,3.013 L72.956,3.013 C72.641,3.013 72.33,3.135 72.302,3.278 L70.574,11.421 C70.536,11.564 70.269,11.681 69.924,11.681 L69.394,11.682 C69.072,11.682 68.829,11.564 68.859,11.422 L71.151,1.734 z" fill="#CCCCCC" id="_x30_.1.0.224.0.10"/>
    <path d="M99.737,46.096 L62.818,46.096 L62.818,16.97 L99.737,16.97 L99.737,46.096 z" fill="#CCCCCC"/>
    <g>
      <path d="M87.605,5.439 L87.756,4.218 L90.309,4.218 L90.441,5.439 z" fill="#939393" id="_x30_.1.0.224.0.12"/>
      <path d="M87.605,5.439 L87.535,5.952 L90.518,5.952 L90.441,5.439 z" fill="#666666" id="_x30_.1.0.224.0.13"/>
      <path d="M72.322,5.439 L72.475,4.218 L75.025,4.218 L75.16,5.439 z" fill="#939393" id="_x30_.1.0.224.0.15"/>
      <path d="M72.322,5.439 L72.255,5.952 L75.239,5.952 L75.16,5.439 z" fill="#666666" id="_x30_.1.0.224.0.16"/>
    </g>
    <path d="M99.896,43.254 L99.896,3.101" fill-opacity="0" stroke="#FFFFFF" stroke-width="3.36" stroke-opacity="0.24" stroke-linecap="round" id="_x30_.1.0.224.0.17"/>
    <path d="M63.877,43.256 L63.877,2.99" fill-opacity="0" stroke="#FFFFFF" stroke-width="3.36" stroke-opacity="0.24" stroke-linecap="round" id="_x30_.1.0.224.0.18"/>
    <path d="M64.969,2.138 L98.873,2.138" fill-opacity="0" stroke="#000000" stroke-width="1.68" stroke-opacity="0.15" stroke-linecap="round" id="_x30_.1.0.224.0.19"/>
    <path d="M61.049,23.765 L61.049,22.22 L62.215,22.22 L62.215,22.22 L62.914,22.22 L62.914,24.772 L61.569,24.772 C61.282,24.772 61.05,24.561 61.05,24.294 L61.05,23.765 z" fill="#999999" id="_x30_.1.0.224.0.20"/>
    <path d="M61.049,24.354 L62.91,24.354 L62.91,24.779 C62.91,24.779 61.632,24.779 61.484,24.779 C61.254,24.774 61.049,24.481 61.049,24.354 z" fill="#808080" id="_x30_.1.0.224.0.21"/>
    <path d="M101.737,23.765 L101.737,22.22 L100.571,22.22 L100.571,22.22 L99.855,22.22 L99.855,24.772 L101.213,24.772 C101.503,24.772 101.73,24.561 101.73,24.294 L101.73,23.765 L101.737,23.765 z" fill="#B3B3B3" id="_x30_.1.0.224.0.22"/>
    <path d="M101.737,24.354 L99.861,24.354 L99.861,24.779 C99.861,24.779 101.151,24.779 101.305,24.779 C101.534,24.774 101.737,24.481 101.737,24.354 z" fill="#E6E6E6" id="_x30_.1.0.224.0.23"/>
    <path d="M101.723,77.516 L86.114,61.907 L101.695,46.326 L117.304,61.935 L101.723,77.516 z" fill="#333333"/>
    <path d="M155.637,122.442 L140.792,122.442 L140.792,85.465 L155.637,85.465 L155.637,122.442 z" fill="#333333"/>
    <path d="M30.968,106.062 L21.767,106.062 L21.767,102.829 L30.968,102.829 L30.968,106.062 z" fill="#6B6A6A"/>
    <path d="M28.364,106.062 L24.751,106.062 L24.751,102.829 L28.364,102.829 L28.364,106.062 z" fill="#C06C00"/>
    <path d="M30.968,101.968 L21.767,101.968 L21.767,98.735 L30.968,98.735 L30.968,101.968 z" fill="#6B6A6A"/>
    <path d="M28.364,101.968 L24.751,101.968 L24.751,98.735 L28.364,98.735 L28.364,101.968 z" fill="#FBFBFB"/>
    <path d="M30.968,97.989 L21.767,97.989 L21.767,94.756 L30.968,94.756 L30.968,97.989 z" fill="#6B6A6A"/>
    <path d="M28.364,97.989 L24.751,97.989 L24.751,94.756 L28.364,94.756 L28.364,97.989 z" fill="#C06C00"/>
    <path d="M78.844,147.922 L71.029,147.922 L71.029,145.176 L78.844,145.176 L78.844,147.922 z" fill="#6B6A6A"/>
    <path d="M76.632,147.922 L73.564,147.922 L73.564,145.176 L76.632,145.176 L76.632,147.922 z" fill="#F68605"/>
    <path d="M70.051,147.922 L62.237,147.922 L62.237,145.176 L70.051,145.176 L70.051,147.922 z" fill="#6B6A6A"/>
    <path d="M67.84,147.922 L64.771,147.922 L64.771,145.176 L67.84,145.176 L67.84,147.922 z" fill="#FF0000"/>
    <path d="M87.636,147.922 L79.822,147.922 L79.822,145.176 L87.636,145.176 L87.636,147.922 z" fill="#6B6A6A"/>
    <path d="M85.425,147.922 L82.356,147.922 L82.356,145.176 L85.425,145.176 L85.425,147.922 z" fill="#F68605"/>
    <path d="M96.429,147.922 L88.614,147.922 L88.614,145.176 L96.429,145.176 L96.429,147.922 z" fill="#6B6A6A"/>
    <path d="M94.217,147.922 L91.149,147.922 L91.149,145.176 L94.217,145.176 L94.217,147.922 z" fill="#F68605"/>
    <g id="connector3pin">
      <path d="M55.018,27.638 C53.885,27.638 52.966,26.72 52.966,25.586 C52.966,24.453 53.885,23.534 55.018,23.534 C56.151,23.534 57.07,24.453 57.07,25.586 C57.07,26.72 56.151,27.638 55.018,27.638 z" fill="#FFFFFF"/>
      <path d="M55.018,27.638 C53.885,27.638 52.966,26.72 52.966,25.586 C52.966,24.453 53.885,23.534 55.018,23.534 C56.151,23.534 57.07,24.453 57.07,25.586 C57.07,26.72 56.151,27.638 55.018,27.638 z" fill-opacity="0" stroke="#9A916C" stroke-width="1.224"/>
    </g>
    <g id="connector4pin">
      <path d="M55.018,34.838 C53.885,34.838 52.966,33.92 52.966,32.786 C52.966,31.653 53.885,30.734 55.018,30.734 C56.151,30.734 57.07,31.653 57.07,32.786 C57.07,33.92 56.151,34.838 55.018,34.838 z" fill="#FFFFFF"/>
      <path d="M55.018,34.838 C53.885,34.838 52.966,33.92 52.966,32.786 C52.966,31.653 53.885,30.734 55.018,30.734 C56.151,30.734 57.07,31.653 57.07,32.786 C57.07,33.92 56.151,34.838 55.018,34.838 z" fill-opacity="0" stroke="#9A916C" stroke-width="1.224"/>
    </g>
    <g id="connector5pin">
      <path d="M55.018,42.038 C53.885,42.038 52.966,41.12 52.966,39.986 C52.966,38.853 53.885,37.934 55.018,37.934 C56.151,37.934 57.07,38.853 57.07,39.986 C57.07,41.12 56.151,42.038 55.018,42.038 z" fill="#FFFFFF"/>
      <path d="M55.018,42.038 C53.885,42.038 52.966,41.12 52.966,39.986 C52.966,38.853 53.885,37.934 55.018,37.934 C56.151,37.934 57.07,38.853 57.07,39.986 C57.07,41.12 56.151,42.038 55.018,42.038 z" fill-opacity="0" stroke="#9A916C" stroke-width="1.224"/>
    </g>
    <g id="connector3pin">
      <path d="M114.252,13.325 C113.119,13.325 112.2,12.407 112.2,11.273 C112.2,10.14 113.119,9.221 114.252,9.221 C115.386,9.221 116.304,10.14 116.304,11.273 C116.304,12.407 115.386,13.325 114.252,13.325 z" fill="#FFFFFF"/>
      <path d="M114.252,13.325 C113.119,13.325 112.2,12.407 112.2,11.273 C112.2,10.14 113.119,9.221 114.252,9.221 C115.386,9.221 116.304,10.14 116.304,11.273 C116.304,12.407 115.386,13.325 114.252,13.325 z" fill-opacity="0" stroke="#9A916C" stroke-width="1.224"/>
    </g>
    <g id="connector4pin">
      <path d="M114.252,20.525 C113.119,20.525 112.2,19.607 112.2,18.473 C112.2,17.34 113.119,16.421 114.252,16.421 C115.386,16.421 116.304,17.34 116.304,18.473 C116.304,19.607 115.386,20.525 114.252,20.525 z" fill="#FFFFFF"/>
      <path d="M114.252,20.525 C113.119,20.525 112.2,19.607 112.2,18.473 C112.2,17.34 113.119,16.421 114.252,16.421 C115.386,16.421 116.304,17.34 116.304,18.473 C116.304,19.607 115.386,20.525 114.252,20.525 z" fill-opacity="0" stroke="#9A916C" stroke-width="1.224"/>
    </g>
    <g id="connector5pin">
      <path d="M114.252,27.725 C113.119,27.725 112.2,26.807 112.2,25.673 C112.2,24.54 113.119,23.621 114.252,23.621 C115.386,23.621 116.304,24.54 116.304,25.673 C116.304,26.807 115.386,27.725 114.252,27.725 z" fill="#FFFFFF"/>
      <path d="M114.252,27.725 C113.119,27.725 112.2,26.807 112.2,25.673 C112.2,24.54 113.119,23.621 114.252,23.621 C115.386,23.621 116.304,24.54 116.304,25.673 C116.304,26.807 115.386,27.725 114.252,27.725 z" fill-opacity="0" stroke="#9A916C" stroke-width="1.224"/>
    </g>
    <path d="M111.075,1.638 L116.409,1.638 L116.409,6.911 L111.075,6.911 L111.075,1.638 z" fill="#9A916C"/>
    <g id="connector3pin">
      <path d="M114.252,6.786 C113.119,6.786 112.2,5.867 112.2,4.734 C112.2,3.6 113.119,2.682 114.252,2.682 C115.386,2.682 116.304,3.6 116.304,4.734 C116.304,5.867 115.386,6.786 114.252,6.786 z" fill="#FFFFFF"/>
      <path d="M114.252,6.786 C113.119,6.786 112.2,5.867 112.2,4.734 C112.2,3.6 113.119,2.682 114.252,2.682 C115.386,2.682 116.304,3.6 116.304,4.734 C116.304,5.867 115.386,6.786 114.252,6.786 z" fill-opacity="0" stroke="#9A916C" stroke-width="1.224"/>
    </g>
  </g>
</svg>
